<svg width="43" height="41" viewBox="0 0 43 41" fill="none" xmlns="http://www.w3.org/2000/svg">
<path d="M16.0209 38.0553V25.3612C16.0209 24.8715 16.0208 24.6265 15.9658 24.396C15.9168 24.1914 15.8359 23.9962 15.726 23.8169C15.6022 23.6148 15.4289 23.4415 15.0824 23.0952L2.93835 10.951C2.59195 10.6046 2.4187 10.4313 2.2948 10.2292C2.185 10.05 2.10405 9.8546 2.05505 9.6502C2.00005 9.41967 2 9.17471 2 8.68478V5.20492C2 4.0831 2.00008 3.52218 2.21838 3.0937C2.41048 2.71681 2.71685 2.41037 3.09375 2.21832C3.52225 2 4.08316 2 5.20496 2H34.8505C35.9724 2 36.5333 2 36.9617 2.21832C37.3387 2.41037 37.6449 2.71681 37.837 3.0937C38.0553 3.52218 38.0553 4.0831 38.0553 5.20492V8.68478C38.0553 9.17471 38.0554 9.41967 38.0004 9.6502C37.9514 9.8546 37.8704 10.05 37.7605 10.2292C37.6367 10.4313 37.4634 10.6046 37.1171 10.951L30.0433 18.0246" stroke="#161616" stroke-width="4.00615" stroke-linecap="round" stroke-linejoin="round"/>
<path fill-rule="evenodd" clip-rule="evenodd" d="M22.2542 25.3385C22.2542 24.622 22.835 24.0366 23.5515 24.0411L40.8604 24.1489C41.577 24.1529 42.1577 24.7298 42.1577 25.4463C42.1577 26.1629 41.577 26.7482 40.8604 26.7437L23.5515 26.6359C22.835 26.6319 22.2542 26.055 22.2542 25.3385ZM22.6967 31.9334C22.6967 31.2168 23.2775 30.6359 23.994 30.6359H36.9681C37.6846 30.6359 38.2655 31.2168 38.2655 31.9334C38.2655 32.6499 37.6846 33.2308 36.9681 33.2308H23.994C23.2775 33.2308 22.6967 32.6499 22.6967 31.9334ZM23.3037 38.4204C23.3037 37.7038 23.8847 37.123 24.6012 37.123H29.7908C30.5074 37.123 31.0881 37.7038 31.0881 38.4204C31.0881 39.1369 30.5074 39.7178 29.7908 39.7178H24.6012C23.8847 39.7178 23.3037 39.1369 23.3037 38.4204Z" fill="#161616"/>
</svg>
