<svg width="35" height="39" viewBox="0 0 35 39" fill="none" xmlns="http://www.w3.org/2000/svg">
<path d="M2 5.87665H25.2599" stroke="#161616" stroke-width="3.12767" stroke-linecap="round"/>
<path d="M2 19.4449H13.6299" stroke="#161616" stroke-width="3.12767" stroke-linecap="round"/>
<path d="M21.3833 19.4449H33.0132" stroke="#161616" stroke-width="3.12767" stroke-linecap="round"/>
<path d="M9.75342 33.0131H33.0133" stroke="#161616" stroke-width="3.12767" stroke-linecap="round"/>
<path d="M29.1364 9.75328C31.2774 9.75328 33.013 8.01765 33.013 5.87664C33.013 3.73563 31.2774 2 29.1364 2C26.9954 2 25.2598 3.73563 25.2598 5.87664C25.2598 8.01765 26.9954 9.75328 29.1364 9.75328Z" stroke="#161616" stroke-width="3.12767" stroke-linecap="round"/>
<path d="M17.5065 23.3215C19.6475 23.3215 21.3832 21.5859 21.3832 19.4449C21.3832 17.3039 19.6475 15.5682 17.5065 15.5682C15.3655 15.5682 13.6299 17.3039 13.6299 19.4449C13.6299 21.5859 15.3655 23.3215 17.5065 23.3215Z" stroke="#161616" stroke-width="3.12767" stroke-linecap="round"/>
<path d="M5.87664 36.8898C8.01765 36.8898 9.75328 35.1541 9.75328 33.0131C9.75328 30.8721 8.01765 29.1365 5.87664 29.1365C3.73563 29.1365 2 30.8721 2 33.0131C2 35.1541 3.73563 36.8898 5.87664 36.8898Z" stroke="#161616" stroke-width="3.12767" stroke-linecap="round"/>
</svg>
