<svg width="41" height="41" viewBox="0 0 41 41" fill="none" xmlns="http://www.w3.org/2000/svg">
<path d="M26.0361 26.0369L38.0546 38.0553M38.0546 26.0369L26.0361 38.0553M16.0208 38.0553V25.3612C16.0208 24.8715 16.0207 24.6265 15.9657 24.396C15.9167 24.1915 15.8358 23.9961 15.726 23.8169C15.6022 23.6148 15.4288 23.4415 15.0824 23.0952L2.93823 10.951C2.59183 10.6045 2.4187 10.4313 2.2948 10.2292C2.185 10.0499 2.10403 9.8546 2.05493 9.65021C1.99993 9.41967 2 9.17471 2 8.68478V5.20493C2 4.08311 1.99996 3.52217 2.21826 3.09369C2.41036 2.71679 2.71673 2.41037 3.09363 2.21832C3.52213 2 4.08303 2 5.20483 2H34.8505C35.9724 2 36.5333 2 36.9617 2.21832C37.3386 2.41041 37.6448 2.71679 37.8369 3.09369C38.0553 3.52217 38.0553 4.08311 38.0553 5.20493V8.68478C38.0553 9.17471 38.0554 9.41967 38.0004 9.65021C37.9504 9.8546 37.8704 10.05 37.7604 10.2292C37.6367 10.4313 37.4632 10.6045 37.1169 10.951L30.0432 18.0246" stroke="#161616" stroke-width="4.00614" stroke-linecap="round" stroke-linejoin="round"/>
</svg>
