<svg width="43" height="41" viewBox="0 0 43 41" fill="none" xmlns="http://www.w3.org/2000/svg">
<path d="M16.0208 38.0553V25.3613C16.0208 24.8715 16.0207 24.6265 15.9657 24.396C15.9167 24.1915 15.8357 23.9962 15.7258 23.8169C15.602 23.6148 15.4289 23.4415 15.0824 23.0952L2.93823 10.951C2.59183 10.6046 2.4187 10.4314 2.2948 10.2292C2.185 10.05 2.10393 9.85461 2.05493 9.65021C1.99993 9.41968 2 9.17471 2 8.68478V5.20493C2 4.08311 1.99996 3.52218 2.21826 3.0937C2.41036 2.71681 2.71673 2.41037 3.09363 2.21832C3.52213 2 4.08303 2 5.20483 2H34.8503C35.9722 2 36.5331 2 36.9615 2.21832C37.3385 2.41037 37.6448 2.71681 37.8369 3.0937C38.0552 3.52218 38.0553 4.08311 38.0553 5.20493V8.68478C38.0553 9.17471 38.0552 9.41968 38.0002 9.65021C37.9512 9.85461 37.8703 10.05 37.7604 10.2292C37.6366 10.4314 37.4632 10.6046 37.1169 10.951L30.0432 18.0246" stroke="url(#paint0_linear_602_5)" stroke-width="4.00615" stroke-linecap="round" stroke-linejoin="round"/>
<path fill-rule="evenodd" clip-rule="evenodd" d="M22.254 25.3385C22.254 24.622 22.835 24.0367 23.5515 24.0411L40.8602 24.1489C41.5768 24.1529 42.1577 24.7298 42.1577 25.4463C42.1577 26.1629 41.5768 26.7482 40.8602 26.7437L23.5515 26.6359C22.835 26.6319 22.254 26.0551 22.254 25.3385ZM22.6965 31.9334C22.6965 31.2168 23.2775 30.636 23.994 30.636H36.968C37.6845 30.636 38.2655 31.2168 38.2655 31.9334C38.2655 32.6499 37.6845 33.2308 36.968 33.2308H23.994C23.2775 33.2308 22.6965 32.6499 22.6965 31.9334ZM23.3037 38.4204C23.3037 37.7039 23.8846 37.123 24.6011 37.123H29.7906C30.5072 37.123 31.088 37.7039 31.088 38.4204C31.088 39.137 30.5072 39.7178 29.7906 39.7178H24.6011C23.8846 39.7178 23.3037 39.137 23.3037 38.4204Z" fill="url(#paint1_linear_602_5)"/>
<defs>
<linearGradient id="paint0_linear_602_5" x1="-0.0115917" y1="20.0237" x2="42.1577" y2="20.0237" gradientUnits="userSpaceOnUse">
<stop stop-color="#F4B011"/>
<stop offset="1" stop-color="#F6E54B" stop-opacity="0.920705"/>
</linearGradient>
<linearGradient id="paint1_linear_602_5" x1="22.254" y1="31.8795" x2="42.1578" y2="31.8795" gradientUnits="userSpaceOnUse">
<stop stop-color="#F4B011"/>
<stop offset="1" stop-color="#F6E54B" stop-opacity="0.920705"/>
</linearGradient>
</defs>
</svg>
