<svg width="41" height="41" viewBox="0 0 41 41" fill="none" xmlns="http://www.w3.org/2000/svg">
<path d="M26.0363 26.0369L38.0547 38.0553M38.0547 26.0369L26.0363 38.0553M16.0209 38.0553V25.3613C16.0209 24.8715 16.0208 24.6265 15.9658 24.396C15.9168 24.1915 15.8359 23.9962 15.7261 23.8169C15.6023 23.6148 15.4289 23.4415 15.0825 23.0952L2.93835 10.951C2.59195 10.6046 2.4187 10.4313 2.2948 10.2292C2.185 10.0499 2.10415 9.8546 2.05505 9.65021C2.00005 9.41967 2 9.17471 2 8.68478V5.20493C2 4.08311 2.00008 3.52218 2.21838 3.0937C2.41048 2.7168 2.71685 2.41037 3.09375 2.21832C3.52225 2 4.08316 2 5.20496 2H34.8506C35.9725 2 36.5333 2 36.9617 2.21832C37.3386 2.41041 37.6449 2.7168 37.837 3.0937C38.0554 3.52218 38.0554 4.08311 38.0554 5.20493V8.68478C38.0554 9.17471 38.0554 9.41967 38.0004 9.65021C37.9504 9.8546 37.8704 10.05 37.7604 10.2292C37.6367 10.4313 37.4634 10.6046 37.1171 10.951L30.0433 18.0246" stroke="url(#paint0_linear_602_4)" stroke-width="4.00614" stroke-linecap="round" stroke-linejoin="round"/>
<defs>
<linearGradient id="paint0_linear_602_4" x1="-0.0114981" y1="20.0237" x2="40.0657" y2="20.0237" gradientUnits="userSpaceOnUse">
<stop stop-color="#F4B011"/>
<stop offset="1" stop-color="#F6E54B" stop-opacity="0.920705"/>
</linearGradient>
</defs>
</svg>
