<svg width="1899" height="474" viewBox="0 0 1899 474" fill="none" xmlns="http://www.w3.org/2000/svg">
<path opacity="0.60119" d="M1842.73 6.85614H56.2841C25.7515 6.85614 1 31.6077 1 62.1402V417.447C1 447.98 25.7515 472.731 56.2841 472.731H1842.73C1873.27 472.731 1898.02 447.98 1898.02 417.447V62.1402C1898.02 31.6077 1873.27 6.85614 1842.73 6.85614Z" fill="url(#paint0_linear_603_74)" stroke="url(#paint1_linear_603_74)" stroke-width="1.73999" stroke-miterlimit="3.1" stroke-linecap="square"/>
<path opacity="0.66369" d="M403.091 30.0478H87.9269C70.5607 30.0478 56.4825 44.1259 56.4825 61.4921C56.4825 78.8584 70.5607 92.9365 87.9269 92.9365H403.091C420.457 92.9365 434.535 78.8584 434.535 61.4921C434.535 44.1259 420.457 30.0478 403.091 30.0478Z" fill="url(#paint2_linear_603_74)" stroke="url(#paint3_linear_603_74)" stroke-width="0.7" stroke-miterlimit="3.1" stroke-linecap="square"/>
<path opacity="0.330341" d="M1823.83 30.0793H1320.34C1303 30.0793 1288.93 44.1433 1288.93 61.4921C1288.93 78.8409 1303 92.9049 1320.34 92.9049H1823.83C1841.18 92.9049 1855.24 78.8409 1855.24 61.4921C1855.24 44.1433 1841.18 30.0793 1823.83 30.0793Z" fill="#FEF8EA" stroke="url(#paint4_linear_603_74)" stroke-width="0.763087" stroke-miterlimit="3.1" stroke-linecap="square"/>
<path opacity="0.330341" d="M1844.33 367.551H53.318C26.3957 367.551 4.57092 389.375 4.57092 416.298C4.57092 443.22 26.3957 465.045 53.318 465.045H1844.33C1871.25 465.045 1893.08 443.22 1893.08 416.298C1893.08 389.375 1871.25 367.551 1844.33 367.551Z" fill="#FEF8EA" stroke="url(#paint5_linear_603_74)" stroke-width="1.7359" stroke-miterlimit="3.1" stroke-linecap="square"/>
<path d="M1816.21 68.4165L1825.66 77.8441M1820.21 58.7668C1820.21 66.2925 1814.11 72.3935 1806.59 72.3935C1799.06 72.3935 1792.96 66.2925 1792.96 58.7668C1792.96 51.2409 1799.06 45.1401 1806.59 45.1401C1814.11 45.1401 1820.21 51.2409 1820.21 58.7668Z" stroke="#161616" stroke-width="3.63379" stroke-linecap="round" stroke-linejoin="round"/>
<path opacity="0.60119" d="M1594.51 0H159.509V447H1594.51V0Z" fill="url(#paint6_radial_603_74)"/>
<path d="M466.04 248.704C469.745 248.704 472.089 248.024 473.072 246.663C474.13 245.302 474.66 242.996 474.66 239.745V217.742H467.401V215.247H500.064V217.742H495.641V249.725H493.94C492.579 247.835 490.651 246.89 488.156 246.89C487.097 246.89 483.922 247.57 478.629 248.931C473.412 250.292 468.951 250.973 465.246 250.973C452.922 250.973 443.358 247.646 436.553 240.992C429.824 234.339 426.459 224.358 426.459 211.051C426.459 197.668 429.975 187.348 437.006 180.089C444.114 172.831 453.64 169.202 465.587 169.202C470.199 169.202 474.811 169.806 479.423 171.016C484.111 172.15 486.833 172.717 487.589 172.717C488.345 172.717 488.912 172.566 489.29 172.264C489.668 171.886 490.084 171.281 490.537 170.449H491.785L492.692 195.06H490.651C486.946 187.726 483.203 181.979 479.423 177.821C475.718 173.587 471.56 171.47 466.948 171.47C455.379 171.47 449.595 182.773 449.595 205.38V214.34C449.595 225.681 450.994 234.263 453.792 240.085C456.665 245.831 460.748 248.704 466.04 248.704ZM542.821 199.029C540.023 199.029 537.566 200.844 535.449 204.473C533.332 208.102 532.273 212.412 532.273 217.402V247.797H540.326V249.838H504.941V247.797H511.179V197.895H504.941V195.854H532.273V206.741C533.256 202.885 535.147 199.937 537.944 197.895C540.742 195.778 543.917 194.72 547.471 194.72C551.024 194.72 553.898 195.74 556.09 197.782C558.359 199.748 559.493 202.583 559.493 206.288C559.493 209.917 558.661 212.714 556.998 214.68C555.334 216.646 552.763 217.629 549.285 217.629C545.883 217.629 543.35 216.495 541.687 214.227C540.099 211.958 539.91 208.821 541.12 204.813H545.203C547.093 200.957 546.299 199.029 542.821 199.029ZM597.146 227.496V217.856C597.146 210.522 596.73 205.191 595.898 201.865C595.142 198.462 593.328 196.761 590.455 196.761C588.791 196.761 587.43 197.252 586.372 198.235C585.389 199.143 584.671 200.693 584.217 202.885C583.536 206.288 583.196 211.467 583.196 218.423V227.269C583.196 235.511 583.423 240.463 583.877 242.126C584.406 243.79 584.935 245.151 585.464 246.209C586.296 248.024 587.922 248.931 590.341 248.931C593.29 248.931 595.218 247.23 596.125 243.827C596.806 241.408 597.146 235.964 597.146 227.496ZM590.114 250.973C580.663 250.973 573.518 248.553 568.679 243.714C563.84 238.875 561.421 231.957 561.421 222.959C561.421 213.886 563.992 206.93 569.133 202.091C574.35 197.177 581.646 194.72 591.022 194.72C600.397 194.72 607.391 196.988 612.003 201.524C616.615 205.985 618.921 212.828 618.921 222.052C618.921 241.332 609.319 250.973 590.114 250.973ZM688.444 249.838H662.585L661.338 241.559C660.128 244.584 658.314 246.927 655.894 248.591C653.55 250.179 650.034 250.973 645.347 250.973C633.627 250.973 627.768 244.659 627.768 232.033V197.895H621.416V195.854H648.862V234.754C648.862 239.291 649.165 242.278 649.77 243.714C650.45 245.151 651.736 245.869 653.626 245.869C655.592 245.869 657.331 244.697 658.843 242.353C660.355 240.009 661.111 236.758 661.111 232.6V197.895H655.894V195.854H682.206V247.797H688.444V249.838ZM732.108 219.33C732.108 211.543 731.73 206.326 730.974 203.679C730.217 200.957 728.743 199.596 726.55 199.596C724.358 199.596 722.392 201.033 720.653 203.906C718.914 206.704 718.044 210.484 718.044 215.247V236.002C718.044 239.253 718.687 242.013 719.972 244.281C721.258 246.549 723.148 247.684 725.643 247.684C728.138 247.684 729.839 246.02 730.747 242.693C731.654 239.367 732.108 233.545 732.108 225.228V219.33ZM717.818 195.854V204.813C720.766 198.084 725.983 194.72 733.469 194.72C739.971 194.72 744.999 197.063 748.553 201.751C752.182 206.439 753.996 213.546 753.996 223.073C753.996 232.6 752.031 239.631 748.099 244.168C744.243 248.704 738.421 250.973 730.633 250.973C727.004 250.973 724.282 250.519 722.468 249.612C720.653 248.704 719.179 247.305 718.044 245.415V274.789H732.675V276.831H690.712V274.789H696.95V197.895H690.939V195.854H717.818ZM774.07 188.028C770.063 188.028 767.19 187.007 765.451 184.966C763.788 182.925 762.956 180.392 762.956 177.367C762.956 174.343 763.863 171.848 765.678 169.882C767.568 167.916 770.403 166.933 774.184 166.933C777.964 166.933 780.837 167.841 782.803 169.655C784.769 171.394 785.752 173.927 785.752 177.254C785.752 180.505 784.807 183.114 782.917 185.079C781.027 187.045 778.078 188.028 774.07 188.028ZM756.945 195.854H784.731V247.797H791.083V249.838H757.399V247.797H763.636V197.895H756.945V195.854ZM823.178 250.973C813.425 250.973 806.091 248.477 801.176 243.487C796.337 238.421 793.918 231.428 793.918 222.506C793.918 213.508 796.64 206.628 802.084 201.865C807.603 197.101 814.597 194.72 823.065 194.72C840.228 194.72 848.47 203.339 847.789 220.578H815.806V225.001C815.806 232.411 816.752 238.006 818.642 241.786C820.532 245.566 823.821 247.457 828.509 247.457C837.279 247.457 843.026 242.769 845.748 233.393L847.789 233.734C846.352 239.178 843.744 243.412 839.964 246.436C836.259 249.46 830.664 250.973 823.178 250.973ZM815.92 218.31H827.601V212.752C827.601 206.628 827.223 202.469 826.467 200.277C825.787 198.009 824.35 196.874 822.158 196.874C820.041 196.874 818.453 198.084 817.394 200.504C816.411 202.847 815.92 206.93 815.92 212.752V218.31ZM943.283 170.449L944.417 198.916H942.262C938.936 188.86 935.987 182.017 933.416 178.388C930.845 174.683 927.141 172.831 922.302 172.831H920.941V247.457H930.581V249.838H889.185V247.457H898.825V172.831H897.351C892.512 172.831 888.769 174.759 886.123 178.615C883.477 182.395 880.566 189.162 877.39 198.916H875.235L876.369 170.449H943.283ZM985.359 199.029C982.562 199.029 980.105 200.844 977.988 204.473C975.871 208.102 974.812 212.412 974.812 217.402V247.797H982.864V249.838H947.479V247.797H953.717V197.895H947.479V195.854H974.812V206.741C975.795 202.885 977.685 199.937 980.483 197.895C983.28 195.778 986.456 194.72 990.009 194.72C993.563 194.72 996.436 195.74 998.629 197.782C1000.9 199.748 1002.03 202.583 1002.03 206.288C1002.03 209.917 1001.2 212.714 999.536 214.68C997.873 216.646 995.302 217.629 991.824 217.629C988.422 217.629 985.889 216.495 984.225 214.227C982.638 211.958 982.449 208.821 983.658 204.813H987.741C989.631 200.957 988.837 199.029 985.359 199.029ZM1029.14 223.186H1032.43V214.453C1032.43 207.271 1032.01 202.469 1031.18 200.05C1030.42 197.555 1028.91 196.307 1026.64 196.307C1025.28 196.307 1024.03 196.685 1022.9 197.441C1021.84 198.122 1021.31 199.105 1021.31 200.39C1021.31 201.6 1021.54 202.848 1021.99 204.133H1024.83C1025.43 205.721 1025.73 207.649 1025.73 209.917C1025.73 212.11 1024.79 214.038 1022.9 215.701C1021.01 217.289 1018.63 218.083 1015.75 218.083C1009.25 218.083 1006 214.945 1006 208.669C1006 199.369 1013.9 194.72 1029.7 194.72C1038.7 194.72 1044.9 196.27 1048.3 199.37C1051.78 202.394 1053.52 207.989 1053.52 216.155V239.178C1053.52 243.109 1054.62 245.075 1056.81 245.075C1059.38 245.075 1060.89 241.181 1061.35 233.393L1063.05 233.507C1062.75 240.16 1061.5 244.735 1059.31 247.23C1057.11 249.725 1053.52 250.973 1048.53 250.973C1039.46 250.973 1034.24 248.175 1032.88 242.58C1031.9 245.453 1030.42 247.57 1028.46 248.931C1026.49 250.292 1023.62 250.973 1019.84 250.973C1008.65 250.973 1003.05 246.398 1003.05 237.25C1003.05 231.881 1005.17 228.214 1009.4 226.248C1013.71 224.207 1020.29 223.186 1029.14 223.186ZM1024.6 237.136C1024.6 241.068 1024.79 243.601 1025.17 244.735C1025.62 245.869 1026.42 246.436 1027.55 246.436C1028.76 246.436 1029.86 245.491 1030.84 243.601C1031.9 241.635 1032.43 238.951 1032.43 235.548V225.001H1031.63C1026.94 225.001 1024.6 228.441 1024.6 235.321V237.136ZM1095.94 196.761C1092.61 196.761 1090.23 198.576 1088.79 202.205C1087.36 205.834 1086.64 211.845 1086.64 220.238V226.135C1086.64 233.62 1087.47 238.989 1089.13 242.24C1090.8 245.491 1093.86 247.116 1098.32 247.116C1102.78 247.116 1106.33 245.604 1108.98 242.58C1111.63 239.556 1113.33 236.115 1114.08 232.259L1116.12 232.486C1114.69 238.989 1112.04 243.676 1108.19 246.549C1104.25 249.498 1098.85 250.973 1091.97 250.973C1083.2 250.973 1076.47 248.629 1071.78 243.941C1067.09 239.178 1064.75 232.259 1064.75 223.186C1064.75 214.038 1067.4 207.006 1072.69 202.091C1078.06 197.177 1085.5 194.72 1095.03 194.72C1101.76 194.72 1106.9 196.043 1110.45 198.689C1114.01 201.26 1115.78 204.511 1115.78 208.443C1115.78 212.374 1114.92 215.247 1113.18 217.062C1111.51 218.877 1109.17 219.784 1106.14 219.784C1103.2 219.784 1100.81 218.99 1099 217.402C1097.19 215.814 1096.28 213.471 1096.28 210.371C1096.28 209.01 1096.47 207.649 1096.84 206.288H1100.59C1101.12 204.776 1101.38 203.415 1101.38 202.205C1101.38 198.576 1099.57 196.761 1095.94 196.761ZM1210.03 250.973C1200.28 250.973 1192.94 248.477 1188.03 243.487C1183.19 238.421 1180.77 231.428 1180.77 222.506C1180.77 213.508 1183.49 206.628 1188.94 201.865C1194.46 197.101 1201.45 194.72 1209.92 194.72C1227.08 194.72 1235.32 203.339 1234.64 220.578H1202.66V225.001C1202.66 232.411 1203.6 238.006 1205.49 241.786C1207.38 245.566 1210.67 247.457 1215.36 247.457C1224.13 247.457 1229.88 242.769 1232.6 233.393L1234.64 233.734C1233.21 239.178 1230.6 243.412 1226.82 246.436C1223.11 249.46 1217.52 250.973 1210.03 250.973ZM1202.77 218.31H1214.45V212.752C1214.45 206.628 1214.08 202.469 1213.32 200.277C1212.64 198.009 1211.2 196.874 1209.01 196.874C1206.89 196.874 1205.31 198.084 1204.25 200.504C1203.26 202.847 1202.77 206.93 1202.77 212.752V218.31ZM1276.6 199.029C1273.81 199.029 1271.35 200.844 1269.23 204.473C1267.12 208.102 1266.06 212.412 1266.06 217.402V247.797H1274.11V249.838H1238.72V247.797H1244.96V197.895H1238.72V195.854H1266.06V206.741C1267.04 202.885 1268.93 199.937 1271.73 197.895C1274.53 195.778 1277.7 194.72 1281.25 194.72C1284.81 194.72 1287.68 195.74 1289.87 197.782C1292.14 199.748 1293.28 202.583 1293.28 206.288C1293.28 209.917 1292.45 212.714 1290.78 214.68C1289.12 216.646 1286.55 217.629 1283.07 217.629C1279.67 217.629 1277.13 216.495 1275.47 214.227C1273.88 211.958 1273.69 208.821 1274.9 204.813H1278.99C1280.88 200.957 1280.08 199.029 1276.6 199.029Z" fill="url(#paint7_linear_603_74)" stroke="url(#paint8_linear_603_74)" stroke-width="0.699999" stroke-miterlimit="3.1" stroke-linecap="square"/>
<mask id="mask0_603_74" style="mask-type:luminance" maskUnits="userSpaceOnUse" x="227" y="67" width="1346" height="310">
<path d="M1561.82 67.7632H238.14C232.211 67.7632 227.405 72.5693 227.405 78.498V365.573C227.405 371.501 232.211 376.307 238.14 376.307H1545.01C1550.94 376.307 1572.55 371.501 1572.55 365.573V78.498C1572.55 72.5693 1567.75 67.7632 1561.82 67.7632Z" fill="white"/>
</mask>
<g mask="url(#mask0_603_74)">
<path d="M1155.86 213.789C1154.96 208.833 1154.52 203.445 1153.66 198.41C1161.29 190.74 1170.18 180.553 1171.12 164.309C1171.44 158.724 1170.3 154.043 1168.92 148.93C1167.97 145.39 1165.46 135.911 1161.68 137.445C1148.47 142.834 1145.36 168.911 1149.1 185.47C1139.97 194.87 1124.55 204.31 1122.23 222.56C1121.01 232.157 1124.08 240.613 1128.45 246.788C1134.07 254.773 1144.93 261.931 1158.69 258.785C1160.38 270.309 1164.67 287.261 1153.5 292.099C1149.41 293.869 1140.21 294.026 1139.3 288.756C1151.61 290.683 1151.57 273.416 1142.84 271.371C1135.6 269.64 1131.28 276.72 1130.96 281.401C1130.37 290.172 1138.67 296.504 1147.8 296.307C1157.59 296.111 1164.51 290.132 1164.24 277.782C1164.08 270.938 1162.08 265.628 1161.76 257.801C1169.67 254.026 1176.75 248.598 1177.69 237.821C1178.79 224.998 1170.77 212.963 1155.86 213.789ZM1158.02 153.493C1161.56 150.071 1167.54 150.425 1167.82 156.757C1168.09 162.893 1164.91 168.36 1161.96 172.608C1158.89 177.013 1155.66 180.829 1151.65 183.149C1149.41 173.552 1152.4 158.999 1158.02 153.493ZM1128.21 232.393C1128.68 224.251 1132.46 218.312 1136.47 213.514C1140.8 208.322 1146.03 204.349 1150.94 200.455C1151.81 204.86 1152.24 209.698 1152.83 214.379C1146.18 217.329 1138.67 222.56 1138.99 233.298C1139.11 236.995 1140.64 240.574 1142.72 243.367C1144.65 245.884 1147.56 248.991 1150.98 248.519C1150.83 246.434 1148.31 245.923 1147.05 244.664C1140.72 238.568 1145.48 225.982 1154.37 224.92C1155.59 235.343 1157.04 245.49 1158.34 255.835C1139.42 258.706 1127.31 246.906 1128.21 232.393ZM1161.17 254.812C1160.11 244.546 1158.34 234.871 1157.36 224.526C1161.17 224.998 1164.44 226.414 1166.72 228.538C1174.58 235.933 1171.32 252.138 1161.17 254.812Z" fill="url(#paint9_linear_603_74)" stroke="url(#paint10_linear_603_74)" stroke-width="0.699999"/>
</g>
<path d="M500.267 314.988C500.84 315.5 501.484 315.918 502.197 316.244C502.926 316.554 503.662 316.709 504.407 316.709C505.337 316.709 506.043 316.531 506.523 316.174C507.004 315.818 507.244 315.345 507.244 314.755C507.244 314.445 507.182 314.182 507.058 313.965C506.934 313.748 506.756 313.561 506.523 313.406C506.306 313.236 506.035 313.081 505.709 312.941C505.399 312.802 505.058 312.662 504.686 312.523L502.616 311.615C502.213 311.46 501.817 311.267 501.43 311.034C501.042 310.801 500.693 310.522 500.383 310.197C500.073 309.871 499.825 309.491 499.639 309.057C499.453 308.623 499.36 308.127 499.36 307.568C499.36 306.964 499.491 306.406 499.755 305.894C500.019 305.367 500.383 304.909 500.848 304.522C501.313 304.134 501.864 303.832 502.499 303.615C503.151 303.397 503.864 303.289 504.639 303.289C505.57 303.289 506.453 303.467 507.291 303.824C508.144 304.165 508.888 304.63 509.524 305.219L508.128 306.941C507.616 306.537 507.081 306.219 506.523 305.987C505.965 305.754 505.337 305.638 504.639 305.638C503.848 305.638 503.22 305.801 502.755 306.126C502.306 306.437 502.081 306.871 502.081 307.429C502.081 307.724 502.151 307.979 502.29 308.196C502.43 308.398 502.616 308.584 502.848 308.755C503.096 308.91 503.376 309.049 503.686 309.173C504.011 309.297 504.345 309.429 504.686 309.569L506.686 310.429C507.167 310.615 507.609 310.832 508.012 311.081C508.415 311.329 508.764 311.615 509.058 311.941C509.353 312.267 509.578 312.647 509.733 313.081C509.903 313.499 509.989 313.988 509.989 314.546C509.989 315.166 509.857 315.748 509.593 316.29C509.345 316.833 508.981 317.314 508.5 317.733C508.02 318.136 507.43 318.461 506.733 318.709C506.035 318.942 505.244 319.058 504.36 319.058C503.29 319.058 502.267 318.864 501.29 318.477C500.313 318.089 499.445 317.539 498.685 316.825L500.267 314.988ZM515.71 309.476H512.664V307.475L515.827 307.359L516.176 304.243H518.385V307.359H523.572V309.476H518.385V314.174C518.385 315.12 518.579 315.818 518.967 316.267C519.354 316.701 520.036 316.918 521.013 316.918C521.509 316.918 521.959 316.88 522.362 316.802C522.781 316.709 523.176 316.593 523.549 316.453L524.037 318.407C523.541 318.578 522.975 318.725 522.339 318.849C521.719 318.988 521.06 319.058 520.362 319.058C519.494 319.058 518.765 318.942 518.176 318.709C517.587 318.477 517.106 318.151 516.734 317.733C516.377 317.298 516.113 316.779 515.943 316.174C515.788 315.569 515.71 314.903 515.71 314.174V309.476ZM526.898 315.709C526.898 315.073 527.045 314.515 527.34 314.034C527.634 313.538 528.099 313.12 528.735 312.778C529.371 312.437 530.185 312.158 531.177 311.941C532.17 311.724 533.371 311.569 534.782 311.476C534.736 310.825 534.503 310.29 534.085 309.871C533.666 309.452 532.992 309.243 532.061 309.243C531.41 309.243 530.766 309.367 530.131 309.615C529.511 309.848 528.906 310.127 528.317 310.453L527.34 308.662C528.037 308.258 528.836 307.894 529.735 307.568C530.635 307.243 531.573 307.08 532.55 307.08C534.147 307.08 535.364 307.506 536.201 308.359C537.038 309.197 537.457 310.414 537.457 312.011V318.779H535.271L535.062 317.36H534.992C534.387 317.826 533.713 318.229 532.968 318.57C532.239 318.895 531.487 319.058 530.712 319.058C530.154 319.058 529.642 318.973 529.177 318.802C528.712 318.647 528.309 318.423 527.968 318.128C527.627 317.833 527.363 317.484 527.177 317.081C526.991 316.663 526.898 316.205 526.898 315.709ZM529.479 315.5C529.479 316.011 529.673 316.384 530.061 316.616C530.464 316.849 530.953 316.965 531.526 316.965C532.1 316.965 532.65 316.841 533.178 316.593C533.72 316.329 534.255 315.988 534.782 315.569V313.151C533.759 313.228 532.906 313.337 532.224 313.476C531.542 313.6 530.999 313.763 530.596 313.965C530.193 314.166 529.906 314.399 529.735 314.662C529.565 314.91 529.479 315.19 529.479 315.5ZM541.272 321.152C541.427 321.198 541.582 321.237 541.737 321.268C541.892 321.299 542.055 321.314 542.225 321.314C542.954 321.314 543.535 321.128 543.97 320.756C544.404 320.399 544.737 319.934 544.97 319.361L545.249 318.64L540.132 307.359H542.807L545.156 312.964C545.373 313.476 545.582 314.019 545.784 314.593C545.985 315.166 546.195 315.74 546.412 316.314H546.505C546.675 315.771 546.861 315.213 547.063 314.639C547.265 314.065 547.458 313.507 547.644 312.964L549.714 307.359H552.25L547.482 319.291C547.233 319.942 546.954 320.524 546.644 321.035C546.35 321.547 546.001 321.981 545.598 322.338C545.195 322.71 544.729 322.989 544.202 323.175C543.675 323.377 543.07 323.477 542.388 323.477C542.078 323.477 541.783 323.454 541.504 323.408C541.225 323.377 540.977 323.322 540.76 323.245L541.272 321.152ZM568.507 311.22C568.507 309.98 568.686 308.871 569.042 307.894C569.399 306.902 569.887 306.064 570.508 305.382C571.143 304.7 571.888 304.18 572.74 303.824C573.609 303.467 574.547 303.289 575.555 303.289C576.485 303.289 577.315 303.483 578.043 303.87C578.772 304.258 579.385 304.7 579.881 305.196L578.369 306.871C577.997 306.499 577.578 306.204 577.113 305.987C576.663 305.754 576.144 305.638 575.555 305.638C574.919 305.638 574.338 305.77 573.81 306.033C573.283 306.282 572.834 306.646 572.461 307.127C572.089 307.592 571.795 308.165 571.578 308.848C571.376 309.53 571.275 310.298 571.275 311.15C571.275 312.019 571.376 312.802 571.578 313.499C571.795 314.182 572.089 314.763 572.461 315.244C572.849 315.709 573.306 316.073 573.834 316.337C574.376 316.585 574.973 316.709 575.625 316.709C576.245 316.709 576.795 316.577 577.276 316.314C577.772 316.05 578.237 315.678 578.671 315.197L580.16 316.849C579.54 317.562 578.842 318.112 578.067 318.5C577.291 318.872 576.423 319.058 575.462 319.058C574.485 319.058 573.57 318.888 572.717 318.547C571.88 318.205 571.143 317.701 570.508 317.035C569.887 316.368 569.399 315.546 569.042 314.569C568.686 313.592 568.507 312.476 568.507 311.22ZM582.3 313.081C582.3 312.135 582.455 311.29 582.765 310.546C583.091 309.801 583.517 309.173 584.044 308.662C584.571 308.15 585.184 307.762 585.882 307.499C586.579 307.22 587.3 307.08 588.045 307.08C588.789 307.08 589.51 307.22 590.208 307.499C590.905 307.762 591.518 308.15 592.045 308.662C592.572 309.173 592.991 309.801 593.301 310.546C593.627 311.29 593.79 312.135 593.79 313.081C593.79 314.027 593.627 314.872 593.301 315.616C592.991 316.36 592.572 316.988 592.045 317.5C591.518 318.012 590.905 318.399 590.208 318.663C589.51 318.926 588.789 319.058 588.045 319.058C587.3 319.058 586.579 318.926 585.882 318.663C585.184 318.399 584.571 318.012 584.044 317.5C583.517 316.988 583.091 316.36 582.765 315.616C582.455 314.872 582.3 314.027 582.3 313.081ZM585.068 313.081C585.068 314.228 585.331 315.151 585.858 315.849C586.386 316.531 587.114 316.872 588.045 316.872C588.975 316.872 589.704 316.531 590.231 315.849C590.758 315.151 591.022 314.228 591.022 313.081C591.022 311.918 590.758 310.995 590.231 310.313C589.704 309.615 588.975 309.266 588.045 309.266C587.114 309.266 586.386 309.615 585.858 310.313C585.331 310.995 585.068 311.918 585.068 313.081ZM596.929 307.359H599.139L599.348 309.08H599.441C599.984 308.538 600.581 308.072 601.232 307.685C601.899 307.282 602.674 307.08 603.558 307.08C604.876 307.08 605.845 307.483 606.465 308.29C607.086 309.08 607.396 310.22 607.396 311.709V318.779H604.698V312.057C604.698 311.127 604.535 310.453 604.209 310.034C603.899 309.6 603.349 309.383 602.558 309.383C602 309.383 601.504 309.514 601.069 309.778C600.635 310.042 600.155 310.445 599.627 310.988V318.779H596.929L596.929 307.359ZM610.885 307.359H613.094L613.304 309.08H613.396C613.939 308.538 614.536 308.072 615.187 307.685C615.854 307.282 616.629 307.08 617.513 307.08C618.831 307.08 619.8 307.483 620.421 308.29C621.041 309.08 621.351 310.22 621.351 311.709V318.779H618.653V312.057C618.653 311.127 618.49 310.453 618.164 310.034C617.854 309.6 617.304 309.383 616.513 309.383C615.955 309.383 615.459 309.514 615.025 309.778C614.59 310.042 614.11 310.445 613.583 310.988V318.779H610.885L610.885 307.359ZM624.375 313.081C624.375 312.15 624.537 311.313 624.863 310.569C625.204 309.825 625.646 309.197 626.189 308.685C626.731 308.158 627.352 307.762 628.049 307.499C628.763 307.22 629.492 307.08 630.236 307.08C631.089 307.08 631.841 307.22 632.492 307.499C633.159 307.762 633.717 308.134 634.167 308.615C634.616 309.08 634.957 309.646 635.19 310.313C635.422 310.98 635.539 311.709 635.539 312.499C635.539 312.763 635.523 313.003 635.492 313.22C635.477 313.437 635.453 313.616 635.422 313.755H627.119C627.243 314.794 627.654 315.593 628.352 316.151C629.05 316.709 629.918 316.988 630.957 316.988C631.546 316.988 632.096 316.911 632.608 316.756C633.12 316.585 633.639 316.353 634.167 316.058L635.074 317.733C634.453 318.12 633.763 318.438 633.004 318.686C632.244 318.934 631.445 319.058 630.608 319.058C629.74 319.058 628.926 318.926 628.166 318.663C627.406 318.384 626.747 317.988 626.189 317.477C625.631 316.965 625.189 316.345 624.863 315.616C624.537 314.872 624.375 314.027 624.375 313.081ZM633.073 312.057C633.073 311.143 632.841 310.429 632.376 309.918C631.91 309.406 631.22 309.15 630.306 309.15C629.918 309.15 629.546 309.212 629.189 309.336C628.833 309.46 628.507 309.646 628.212 309.894C627.933 310.142 627.693 310.445 627.491 310.801C627.29 311.158 627.158 311.577 627.096 312.057H633.073ZM638.586 313.081C638.586 312.135 638.756 311.29 639.097 310.546C639.454 309.801 639.927 309.173 640.516 308.662C641.105 308.15 641.795 307.762 642.586 307.499C643.377 307.22 644.206 307.08 645.075 307.08C646.005 307.08 646.819 307.235 647.517 307.545C648.23 307.855 648.827 308.235 649.308 308.685L648.029 310.36C647.579 310.003 647.122 309.732 646.656 309.545C646.207 309.359 645.726 309.266 645.214 309.266C644.067 309.266 643.137 309.615 642.423 310.313C641.71 310.995 641.353 311.918 641.353 313.081C641.353 313.654 641.446 314.174 641.633 314.639C641.819 315.104 642.074 315.507 642.4 315.849C642.741 316.174 643.144 316.43 643.609 316.616C644.075 316.787 644.586 316.872 645.145 316.872C645.796 316.872 646.385 316.748 646.912 316.5C647.455 316.252 647.951 315.957 648.401 315.616L649.517 317.337C648.866 317.911 648.137 318.345 647.331 318.64C646.525 318.919 645.71 319.058 644.889 319.058C643.989 319.058 643.152 318.926 642.377 318.663C641.617 318.399 640.95 318.012 640.377 317.5C639.818 316.988 639.376 316.36 639.051 315.616C638.741 314.872 638.586 314.027 638.586 313.081ZM655.262 309.476H652.215V307.475L655.378 307.359L655.727 304.243H657.937V307.359H663.123V309.476H657.937V314.174C657.937 315.12 658.131 315.818 658.518 316.267C658.906 316.701 659.588 316.918 660.565 316.918C661.061 316.918 661.511 316.88 661.914 316.802C662.333 316.709 662.728 316.593 663.1 316.453L663.589 318.407C663.092 318.578 662.526 318.725 661.891 318.849C661.271 318.988 660.612 319.058 659.914 319.058C659.045 319.058 658.317 318.942 657.727 318.709C657.138 318.477 656.658 318.151 656.285 317.733C655.929 317.298 655.665 316.779 655.495 316.174C655.34 315.569 655.262 314.903 655.262 314.174V309.476ZM666.24 313.081C666.24 312.15 666.403 311.313 666.729 310.569C667.07 309.825 667.512 309.197 668.054 308.685C668.597 308.158 669.217 307.762 669.915 307.499C670.628 307.22 671.357 307.08 672.101 307.08C672.954 307.08 673.706 307.22 674.357 307.499C675.024 307.762 675.582 308.134 676.032 308.615C676.482 309.08 676.823 309.646 677.055 310.313C677.288 310.98 677.404 311.709 677.404 312.499C677.404 312.763 677.389 313.003 677.358 313.22C677.342 313.437 677.319 313.616 677.288 313.755H668.985C669.109 314.794 669.52 315.593 670.217 316.151C670.915 316.709 671.783 316.988 672.822 316.988C673.412 316.988 673.962 316.911 674.474 316.756C674.985 316.585 675.505 316.353 676.032 316.058L676.939 317.733C676.319 318.12 675.629 318.438 674.869 318.686C674.109 318.934 673.311 319.058 672.473 319.058C671.605 319.058 670.791 318.926 670.031 318.663C669.271 318.384 668.613 317.988 668.054 317.477C667.496 316.965 667.054 316.345 666.729 315.616C666.403 314.872 666.24 314.027 666.24 313.081ZM674.939 312.057C674.939 311.143 674.706 310.429 674.241 309.918C673.776 309.406 673.086 309.15 672.171 309.15C671.783 309.15 671.411 309.212 671.055 309.336C670.698 309.46 670.372 309.646 670.078 309.894C669.799 310.142 669.558 310.445 669.357 310.801C669.155 311.158 669.023 311.577 668.961 312.057H674.939ZM681.777 307.359H683.986L684.219 309.941H684.289C684.878 309.011 685.584 308.305 686.405 307.824C687.243 307.328 688.158 307.08 689.15 307.08C689.615 307.08 690.01 307.119 690.336 307.196C690.677 307.258 691.018 307.375 691.359 307.545L690.801 309.801C690.429 309.677 690.096 309.592 689.801 309.545C689.522 309.483 689.165 309.452 688.731 309.452C687.94 309.452 687.181 309.677 686.452 310.127C685.723 310.577 685.064 311.36 684.475 312.476V318.779H681.777L681.777 307.359ZM706.826 303.568H709.548L710.385 312.383C710.416 313.034 710.455 313.67 710.501 314.29C710.548 314.91 710.587 315.546 710.618 316.197H710.687C710.811 315.546 710.951 314.91 711.106 314.29C711.277 313.654 711.432 313.019 711.571 312.383L712.897 307.452H714.618L715.921 312.383C716.045 313.003 716.184 313.631 716.339 314.267C716.51 314.903 716.657 315.546 716.781 316.197H716.874C716.905 315.546 716.944 314.903 716.99 314.267C717.037 313.631 717.076 313.003 717.107 312.383L717.898 303.568H720.456L718.386 318.779H715.525L714.176 313.22C714.068 312.74 713.975 312.259 713.897 311.778C713.82 311.298 713.75 310.832 713.688 310.383H713.618C713.54 310.832 713.463 311.298 713.385 311.778C713.308 312.259 713.215 312.74 713.106 313.22L711.827 318.779H709.013L706.826 303.568ZM722.573 307.359H730.201V318.779H727.527V309.476H722.573V307.359ZM728.666 305.359C728.124 305.359 727.666 305.196 727.294 304.871C726.937 304.545 726.759 304.111 726.759 303.568C726.759 303.025 726.937 302.591 727.294 302.266C727.666 301.924 728.124 301.754 728.666 301.754C729.224 301.754 729.682 301.924 730.039 302.266C730.395 302.591 730.573 303.025 730.573 303.568C730.573 304.111 730.395 304.545 730.039 304.871C729.682 305.196 729.224 305.359 728.666 305.359ZM738.993 309.476H735.946V307.475L739.109 307.359L739.458 304.243H741.668V307.359H746.854V309.476H741.668V314.174C741.668 315.12 741.862 315.818 742.249 316.267C742.637 316.701 743.319 316.918 744.296 316.918C744.792 316.918 745.242 316.88 745.645 316.802C746.064 316.709 746.459 316.593 746.831 316.453L747.32 318.407C746.823 318.578 746.257 318.725 745.622 318.849C745.002 318.988 744.343 319.058 743.645 319.058C742.776 319.058 742.048 318.942 741.458 318.709C740.869 318.477 740.389 318.151 740.016 317.733C739.66 317.298 739.396 316.779 739.226 316.174C739.071 315.569 738.993 314.903 738.993 314.174V309.476ZM750.436 302.359H753.134V306.592L752.971 309.034C753.499 308.507 754.088 308.049 754.739 307.662C755.406 307.274 756.181 307.08 757.065 307.08C758.383 307.08 759.352 307.483 759.972 308.29C760.593 309.08 760.903 310.22 760.903 311.709V318.779H758.205V312.057C758.205 311.127 758.042 310.453 757.716 310.034C757.406 309.6 756.856 309.383 756.065 309.383C755.507 309.383 755.011 309.514 754.576 309.778C754.142 310.042 753.662 310.445 753.134 310.988V318.779H750.436V302.359ZM782.068 313.499L777.067 303.568H779.928L781.835 307.662C782.099 308.251 782.355 308.832 782.603 309.406C782.867 309.964 783.13 310.553 783.394 311.174H783.487C783.766 310.553 784.037 309.956 784.301 309.383C784.564 308.809 784.828 308.227 785.092 307.638L786.976 303.568H789.767L784.766 313.499V318.779H782.068V313.499ZM791.627 313.081C791.627 312.135 791.782 311.29 792.092 310.546C792.418 309.801 792.845 309.173 793.372 308.662C793.899 308.15 794.511 307.762 795.209 307.499C795.907 307.22 796.628 307.08 797.372 307.08C798.116 307.08 798.837 307.22 799.535 307.499C800.233 307.762 800.845 308.15 801.373 308.662C801.9 309.173 802.318 309.801 802.629 310.546C802.954 311.29 803.117 312.135 803.117 313.081C803.117 314.027 802.954 314.872 802.629 315.616C802.318 316.36 801.9 316.988 801.373 317.5C800.845 318.012 800.233 318.399 799.535 318.663C798.837 318.926 798.116 319.058 797.372 319.058C796.628 319.058 795.907 318.926 795.209 318.663C794.511 318.399 793.899 318.012 793.372 317.5C792.845 316.988 792.418 316.36 792.092 315.616C791.782 314.872 791.627 314.027 791.627 313.081ZM794.395 313.081C794.395 314.228 794.659 315.151 795.186 315.849C795.713 316.531 796.442 316.872 797.372 316.872C798.303 316.872 799.031 316.531 799.558 315.849C800.086 315.151 800.349 314.228 800.349 313.081C800.349 311.918 800.086 310.995 799.558 310.313C799.031 309.615 798.303 309.266 797.372 309.266C796.442 309.266 795.713 309.615 795.186 310.313C794.659 310.995 794.395 311.918 794.395 313.081ZM816.328 318.779H814.142L813.932 316.965H813.839C813.297 317.601 812.7 318.112 812.048 318.5C811.397 318.872 810.645 319.058 809.792 319.058C808.459 319.058 807.49 318.663 806.885 317.872C806.28 317.066 805.978 315.918 805.978 314.43V307.359H808.653V314.081C808.653 315.011 808.808 315.693 809.118 316.128C809.443 316.546 810.002 316.756 810.792 316.756C811.335 316.756 811.816 316.632 812.234 316.384C812.669 316.135 813.142 315.694 813.653 315.058V307.359H816.328L816.328 318.779ZM821.329 307.359H823.538L823.771 309.941H823.841C824.43 309.011 825.135 308.305 825.957 307.824C826.794 307.328 827.709 307.08 828.702 307.08C829.167 307.08 829.562 307.119 829.888 307.196C830.229 307.258 830.57 307.375 830.911 307.545L830.353 309.801C829.981 309.677 829.647 309.592 829.353 309.545C829.074 309.483 828.717 309.452 828.283 309.452C827.492 309.452 826.732 309.677 826.004 310.127C825.275 310.577 824.616 311.36 824.027 312.476V318.779H821.329L821.329 307.359ZM849.03 303.568H858.705V305.847H851.728V310.15H857.659V312.43H851.728V318.779H849.03V303.568ZM861.822 315.709C861.822 315.073 861.969 314.515 862.264 314.034C862.558 313.538 863.024 313.12 863.659 312.778C864.295 312.437 865.109 312.158 866.101 311.941C867.094 311.724 868.295 311.569 869.706 311.476C869.66 310.825 869.427 310.29 869.009 309.871C868.59 309.452 867.916 309.243 866.985 309.243C866.334 309.243 865.69 309.367 865.055 309.615C864.435 309.848 863.83 310.127 863.241 310.453L862.264 308.662C862.961 308.258 863.76 307.894 864.659 307.568C865.559 307.243 866.497 307.08 867.474 307.08C869.071 307.08 870.288 307.506 871.125 308.359C871.963 309.197 872.381 310.414 872.381 312.011V318.779H870.195L869.986 317.36H869.916C869.311 317.826 868.637 318.229 867.892 318.57C867.164 318.895 866.411 319.058 865.636 319.058C865.078 319.058 864.566 318.973 864.101 318.802C863.636 318.647 863.233 318.423 862.892 318.128C862.551 317.833 862.287 317.484 862.101 317.081C861.915 316.663 861.822 316.205 861.822 315.709ZM864.404 315.5C864.404 316.011 864.597 316.384 864.985 316.616C865.388 316.849 865.877 316.965 866.45 316.965C867.024 316.965 867.574 316.841 868.102 316.593C868.644 316.329 869.179 315.988 869.706 315.569V313.151C868.683 313.228 867.83 313.337 867.148 313.476C866.466 313.6 865.923 313.763 865.52 313.965C865.117 314.166 864.83 314.399 864.659 314.662C864.489 314.91 864.404 315.19 864.404 315.5ZM875.079 307.359H877.777L879.987 313.29C880.204 313.864 880.398 314.438 880.568 315.011C880.754 315.569 880.94 316.143 881.126 316.732H881.219C881.406 316.143 881.584 315.569 881.754 315.011C881.94 314.438 882.142 313.864 882.359 313.29L884.569 307.359H887.127L882.685 318.779H879.638L875.079 307.359ZM889.313 313.081C889.313 312.135 889.469 311.29 889.779 310.546C890.104 309.801 890.531 309.173 891.058 308.662C891.585 308.15 892.198 307.762 892.895 307.499C893.593 307.22 894.314 307.08 895.058 307.08C895.803 307.08 896.524 307.22 897.221 307.499C897.919 307.762 898.532 308.15 899.059 308.662C899.586 309.173 900.005 309.801 900.315 310.546C900.64 311.29 900.803 312.135 900.803 313.081C900.803 314.027 900.64 314.872 900.315 315.616C900.005 316.36 899.586 316.988 899.059 317.5C898.532 318.012 897.919 318.399 897.221 318.663C896.524 318.926 895.803 319.058 895.058 319.058C894.314 319.058 893.593 318.926 892.895 318.663C892.198 318.399 891.585 318.012 891.058 317.5C890.531 316.988 890.104 316.36 889.779 315.616C889.469 314.872 889.313 314.027 889.313 313.081ZM892.081 313.081C892.081 314.228 892.345 315.151 892.872 315.849C893.399 316.531 894.128 316.872 895.058 316.872C895.989 316.872 896.717 316.531 897.245 315.849C897.772 315.151 898.035 314.228 898.035 313.081C898.035 311.918 897.772 310.995 897.245 310.313C896.717 309.615 895.989 309.266 895.058 309.266C894.128 309.266 893.399 309.615 892.872 310.313C892.345 310.995 892.081 311.918 892.081 313.081ZM905.06 307.359H907.269L907.502 309.941H907.572C908.161 309.011 908.866 308.305 909.688 307.824C910.526 307.328 911.44 307.08 912.433 307.08C912.898 307.08 913.293 307.119 913.619 307.196C913.96 307.258 914.301 307.375 914.642 307.545L914.084 309.801C913.712 309.677 913.379 309.592 913.084 309.545C912.805 309.483 912.448 309.452 912.014 309.452C911.223 309.452 910.464 309.677 909.735 310.127C909.006 310.577 908.347 311.36 907.758 312.476V318.779H905.06L905.06 307.359ZM917.945 307.359H925.574V318.779H922.899V309.476H917.945V307.359ZM924.039 305.359C923.496 305.359 923.038 305.196 922.666 304.871C922.31 304.545 922.131 304.111 922.131 303.568C922.131 303.025 922.31 302.591 922.666 302.266C923.038 301.924 923.496 301.754 924.039 301.754C924.597 301.754 925.054 301.924 925.411 302.266C925.767 302.591 925.946 303.025 925.946 303.568C925.946 304.111 925.767 304.545 925.411 304.871C925.054 305.196 924.597 305.359 924.039 305.359ZM934.365 309.476H931.319V307.475L934.482 307.359L934.831 304.243H937.04V307.359H942.227V309.476H937.04V314.174C937.04 315.12 937.234 315.818 937.622 316.267C938.009 316.701 938.692 316.918 939.668 316.918C940.165 316.918 940.614 316.88 941.017 316.802C941.436 316.709 941.831 316.593 942.204 316.453L942.692 318.407C942.196 318.578 941.63 318.725 940.994 318.849C940.374 318.988 939.715 319.058 939.017 319.058C938.149 319.058 937.42 318.942 936.831 318.709C936.242 318.477 935.761 318.151 935.389 317.733C935.032 317.298 934.769 316.779 934.598 316.174C934.443 315.569 934.365 314.903 934.365 314.174V309.476ZM945.344 313.081C945.344 312.15 945.506 311.313 945.832 310.569C946.173 309.825 946.615 309.197 947.158 308.685C947.7 308.158 948.321 307.762 949.018 307.499C949.732 307.22 950.46 307.08 951.205 307.08C952.058 307.08 952.809 307.22 953.461 307.499C954.127 307.762 954.686 308.134 955.135 308.615C955.585 309.08 955.926 309.646 956.159 310.313C956.391 310.98 956.508 311.709 956.508 312.499C956.508 312.763 956.492 313.003 956.461 313.22C956.445 313.437 956.422 313.616 956.391 313.755H948.087C948.211 314.794 948.622 315.593 949.32 316.151C950.018 316.709 950.886 316.988 951.925 316.988C952.514 316.988 953.065 316.911 953.576 316.756C954.088 316.585 954.608 316.353 955.135 316.058L956.042 317.733C955.422 318.12 954.731 318.438 953.972 318.686C953.212 318.934 952.414 319.058 951.576 319.058C950.708 319.058 949.894 318.926 949.134 318.663C948.374 318.384 947.715 317.988 947.157 317.477C946.599 316.965 946.157 316.345 945.831 315.616C945.506 314.872 945.344 314.027 945.344 313.081ZM954.042 312.057C954.042 311.143 953.81 310.429 953.344 309.918C952.879 309.406 952.189 309.15 951.274 309.15C950.887 309.15 950.515 309.212 950.158 309.336C949.801 309.46 949.476 309.646 949.181 309.894C948.902 310.142 948.662 310.445 948.46 310.801C948.259 311.158 948.127 311.577 948.065 312.057H954.042ZM980.673 312.546L980.138 310.685C979.921 309.879 979.696 309.049 979.464 308.196C979.231 307.344 979.006 306.499 978.789 305.661H978.696C978.479 306.514 978.255 307.367 978.022 308.22C977.805 309.057 977.58 309.879 977.347 310.685L976.812 312.546H980.673ZM981.278 314.662H976.208L975.021 318.779H972.277L977.208 303.568H980.371L985.302 318.779H982.441L981.278 314.662ZM988.791 307.359H991L991.233 309.941H991.303C991.892 309.011 992.597 308.305 993.419 307.824C994.257 307.328 995.171 307.08 996.164 307.08C996.629 307.08 997.024 307.119 997.35 307.196C997.691 307.258 998.032 307.375 998.373 307.545L997.815 309.801C997.443 309.677 997.11 309.592 996.815 309.545C996.536 309.483 996.179 309.452 995.745 309.452C994.954 309.452 994.195 309.677 993.466 310.127C992.737 310.577 992.078 311.36 991.489 312.476V318.779H988.791L988.791 307.359ZM1004.14 309.476H1001.09V307.475L1004.26 307.359L1004.61 304.243H1006.82V307.359H1012V309.476H1006.82V314.174C1006.82 315.12 1007.01 315.818 1007.4 316.267C1007.79 316.701 1008.47 316.918 1009.44 316.918C1009.94 316.918 1010.39 316.88 1010.79 316.802C1011.21 316.709 1011.61 316.593 1011.98 316.453L1012.47 318.407C1011.97 318.578 1011.41 318.725 1010.77 318.849C1010.15 318.988 1009.49 319.058 1008.79 319.058C1007.92 319.058 1007.2 318.942 1006.61 318.709C1006.02 318.477 1005.54 318.151 1005.16 317.733C1004.81 317.298 1004.54 316.779 1004.37 316.174C1004.22 315.569 1004.14 314.903 1004.14 314.174V309.476ZM1015.63 307.359H1023.26V318.779H1020.59V309.476H1015.63V307.359ZM1021.72 305.359C1021.18 305.359 1020.72 305.196 1020.35 304.871C1020 304.545 1019.82 304.111 1019.82 303.568C1019.82 303.025 1020 302.591 1020.35 302.266C1020.72 301.924 1021.18 301.754 1021.72 301.754C1022.28 301.754 1022.74 301.924 1023.1 302.266C1023.45 302.591 1023.63 303.025 1023.63 303.568C1023.63 304.111 1023.45 304.545 1023.1 304.871C1022.74 305.196 1022.28 305.359 1021.72 305.359ZM1030.33 315.593C1030.98 316.042 1031.66 316.399 1032.35 316.663C1033.07 316.911 1033.87 317.035 1034.75 317.035C1035.65 317.035 1036.31 316.911 1036.73 316.663C1037.15 316.399 1037.35 316.066 1037.35 315.662C1037.35 315.259 1037.08 314.926 1036.54 314.662C1036 314.383 1035.14 314.089 1033.98 313.779C1033.44 313.639 1032.91 313.468 1032.4 313.267C1031.89 313.065 1031.44 312.833 1031.05 312.569C1030.66 312.305 1030.35 312.003 1030.12 311.662C1029.89 311.321 1029.77 310.933 1029.77 310.499C1029.77 309.491 1030.21 308.669 1031.07 308.034C1031.94 307.398 1033.19 307.08 1034.82 307.08C1035.75 307.08 1036.63 307.235 1037.45 307.545C1038.27 307.855 1038.97 308.204 1039.56 308.592L1038.33 310.243C1037.82 309.902 1037.27 309.631 1036.68 309.429C1036.11 309.212 1035.49 309.104 1034.84 309.104C1033.96 309.104 1033.34 309.228 1032.98 309.476C1032.63 309.708 1032.45 310.003 1032.45 310.36C1032.45 310.561 1032.52 310.747 1032.68 310.918C1032.85 311.073 1033.07 311.22 1033.35 311.36C1033.65 311.484 1033.99 311.608 1034.38 311.732C1034.77 311.856 1035.19 311.972 1035.66 312.081C1036.32 312.251 1036.92 312.445 1037.45 312.662C1037.99 312.864 1038.45 313.096 1038.82 313.36C1039.21 313.623 1039.5 313.934 1039.7 314.29C1039.92 314.647 1040.03 315.058 1040.03 315.523C1040.03 316.019 1039.91 316.484 1039.68 316.918C1039.45 317.337 1039.11 317.709 1038.66 318.035C1038.21 318.345 1037.65 318.593 1036.98 318.779C1036.32 318.965 1035.55 319.058 1034.68 319.058C1033.61 319.058 1032.59 318.888 1031.61 318.547C1030.63 318.205 1029.79 317.787 1029.07 317.291L1030.33 315.593ZM1046.01 309.476H1042.96V307.475L1046.12 307.359L1046.47 304.243H1048.68V307.359H1053.87V309.476H1048.68V314.174C1048.68 315.12 1048.88 315.818 1049.26 316.267C1049.65 316.701 1050.33 316.918 1051.31 316.918C1051.81 316.918 1052.26 316.88 1052.66 316.802C1053.08 316.709 1053.47 316.593 1053.84 316.453L1054.33 318.407C1053.84 318.578 1053.27 318.725 1052.64 318.849C1052.02 318.988 1051.36 319.058 1050.66 319.058C1049.79 319.058 1049.06 318.942 1048.47 318.709C1047.88 318.477 1047.4 318.151 1047.03 317.733C1046.67 317.298 1046.41 316.779 1046.24 316.174C1046.08 315.569 1046.01 314.903 1046.01 314.174V309.476ZM1058.24 315.593C1058.89 316.042 1059.57 316.399 1060.26 316.663C1060.98 316.911 1061.78 317.035 1062.66 317.035C1063.56 317.035 1064.22 316.911 1064.64 316.663C1065.06 316.399 1065.26 316.066 1065.26 315.662C1065.26 315.259 1064.99 314.926 1064.45 314.662C1063.91 314.383 1063.06 314.089 1061.89 313.779C1061.35 313.639 1060.82 313.468 1060.31 313.267C1059.8 313.065 1059.35 312.833 1058.96 312.569C1058.57 312.305 1058.26 312.003 1058.03 311.662C1057.8 311.321 1057.68 310.933 1057.68 310.499C1057.68 309.491 1058.12 308.669 1058.99 308.034C1059.85 307.398 1061.1 307.08 1062.73 307.08C1063.66 307.08 1064.54 307.235 1065.36 307.545C1066.18 307.855 1066.89 308.204 1067.47 308.592L1066.24 310.243C1065.73 309.902 1065.18 309.631 1064.59 309.429C1064.02 309.212 1063.4 309.104 1062.75 309.104C1061.87 309.104 1061.25 309.228 1060.89 309.476C1060.54 309.708 1060.36 310.003 1060.36 310.36C1060.36 310.561 1060.43 310.747 1060.59 310.918C1060.76 311.073 1060.99 311.22 1061.26 311.36C1061.56 311.484 1061.9 311.608 1062.29 311.732C1062.68 311.856 1063.1 311.972 1063.57 312.081C1064.23 312.251 1064.83 312.445 1065.36 312.662C1065.9 312.864 1066.36 313.096 1066.73 313.36C1067.12 313.623 1067.41 313.934 1067.61 314.29C1067.83 314.647 1067.94 315.058 1067.94 315.523C1067.94 316.019 1067.82 316.484 1067.59 316.918C1067.36 317.337 1067.02 317.709 1066.57 318.035C1066.12 318.345 1065.56 318.593 1064.89 318.779C1064.23 318.965 1063.46 319.058 1062.59 319.058C1061.52 319.058 1060.5 318.888 1059.52 318.547C1058.54 318.205 1057.7 317.787 1056.98 317.291L1058.24 315.593ZM1092.31 312.546L1091.78 310.685C1091.56 309.879 1091.34 309.049 1091.11 308.196C1090.87 307.344 1090.65 306.499 1090.43 305.661H1090.34C1090.12 306.514 1089.9 307.367 1089.66 308.22C1089.45 309.057 1089.22 309.879 1088.99 310.685L1088.45 312.546H1092.31ZM1092.92 314.662H1087.85L1086.66 318.779H1083.92L1088.85 303.568H1092.01L1096.94 318.779H1094.08L1092.92 314.662ZM1099.32 307.359H1101.53L1101.73 309.08H1101.83C1102.37 308.538 1102.97 308.072 1103.62 307.685C1104.29 307.282 1105.06 307.08 1105.94 307.08C1107.26 307.08 1108.23 307.483 1108.85 308.29C1109.47 309.08 1109.78 310.22 1109.78 311.709V318.779H1107.08V312.057C1107.08 311.127 1106.92 310.453 1106.6 310.034C1106.29 309.6 1105.73 309.383 1104.94 309.383C1104.39 309.383 1103.89 309.514 1103.46 309.778C1103.02 310.042 1102.54 310.445 1102.01 310.988V318.779H1099.32L1099.32 307.359ZM1112.6 313.081C1112.6 312.15 1112.74 311.313 1113.01 310.569C1113.29 309.825 1113.67 309.197 1114.13 308.685C1114.61 308.173 1115.15 307.778 1115.76 307.499C1116.36 307.22 1116.99 307.08 1117.64 307.08C1118.33 307.08 1118.91 307.204 1119.39 307.452C1119.88 307.685 1120.36 308.01 1120.83 308.429L1120.71 306.499V302.359H1123.41V318.779H1121.2L1120.99 317.453H1120.92C1120.47 317.903 1119.95 318.283 1119.34 318.593C1118.75 318.903 1118.13 319.058 1117.48 319.058C1116.75 319.058 1116.08 318.926 1115.48 318.663C1114.88 318.384 1114.36 317.988 1113.92 317.477C1113.5 316.965 1113.18 316.345 1112.94 315.616C1112.71 314.872 1112.6 314.027 1112.6 313.081ZM1115.36 313.057C1115.36 314.298 1115.6 315.244 1116.08 315.895C1116.57 316.531 1117.25 316.849 1118.13 316.849C1119.08 316.849 1119.94 316.391 1120.71 315.476V310.336C1120.31 309.949 1119.91 309.677 1119.5 309.522C1119.1 309.367 1118.69 309.29 1118.27 309.29C1117.87 309.29 1117.49 309.375 1117.13 309.545C1116.79 309.716 1116.49 309.964 1116.22 310.29C1115.96 310.6 1115.75 310.987 1115.6 311.453C1115.44 311.918 1115.36 312.453 1115.36 313.057ZM1141.69 303.568H1151.41V305.847H1144.39V309.732H1150.34V312.011H1144.39V316.5H1151.65V318.779H1141.69V303.568ZM1154.18 307.359H1156.88L1159.09 313.29C1159.31 313.864 1159.5 314.437 1159.67 315.011C1159.86 315.569 1160.04 316.143 1160.23 316.732H1160.32C1160.51 316.143 1160.69 315.569 1160.86 315.011C1161.04 314.437 1161.25 313.864 1161.46 313.29L1163.67 307.359H1166.23L1161.79 318.779H1158.74L1154.18 307.359ZM1168.63 313.081C1168.63 312.15 1168.79 311.313 1169.11 310.569C1169.46 309.825 1169.9 309.197 1170.44 308.685C1170.98 308.158 1171.6 307.762 1172.3 307.499C1173.01 307.22 1173.74 307.08 1174.49 307.08C1175.34 307.08 1176.09 307.22 1176.74 307.499C1177.41 307.762 1177.97 308.134 1178.42 308.615C1178.87 309.08 1179.21 309.646 1179.44 310.313C1179.67 310.98 1179.79 311.708 1179.79 312.499C1179.79 312.763 1179.77 313.003 1179.74 313.22C1179.73 313.437 1179.71 313.616 1179.67 313.755H1171.37C1171.5 314.794 1171.91 315.593 1172.6 316.151C1173.3 316.709 1174.17 316.988 1175.21 316.988C1175.8 316.988 1176.35 316.911 1176.86 316.756C1177.37 316.585 1177.89 316.352 1178.42 316.058L1179.33 317.732C1178.71 318.12 1178.02 318.438 1177.26 318.686C1176.5 318.934 1175.7 319.058 1174.86 319.058C1173.99 319.058 1173.18 318.926 1172.42 318.663C1171.66 318.384 1171 317.988 1170.44 317.477C1169.88 316.965 1169.44 316.345 1169.11 315.616C1168.79 314.872 1168.63 314.027 1168.63 313.081ZM1177.32 312.057C1177.32 311.143 1177.09 310.429 1176.63 309.918C1176.16 309.406 1175.47 309.15 1174.56 309.15C1174.17 309.15 1173.8 309.212 1173.44 309.336C1173.08 309.46 1172.76 309.646 1172.46 309.894C1172.18 310.142 1171.94 310.445 1171.74 310.801C1171.54 311.158 1171.41 311.577 1171.35 312.057H1177.32ZM1183.05 307.359H1185.26L1185.47 309.08H1185.56C1186.1 308.538 1186.7 308.072 1187.35 307.685C1188.02 307.282 1188.79 307.08 1189.68 307.08C1190.99 307.08 1191.96 307.483 1192.58 308.289C1193.2 309.08 1193.51 310.22 1193.51 311.708V318.779H1190.81V312.057C1190.81 311.127 1190.65 310.453 1190.33 310.034C1190.02 309.6 1189.47 309.383 1188.68 309.383C1188.12 309.383 1187.62 309.514 1187.19 309.778C1186.75 310.042 1186.27 310.445 1185.74 310.987V318.779H1183.05L1183.05 307.359ZM1199.51 309.476H1196.47V307.475L1199.63 307.359L1199.98 304.242H1202.19V307.359H1207.38V309.476H1202.19V314.174C1202.19 315.12 1202.38 315.818 1202.77 316.267C1203.16 316.701 1203.84 316.918 1204.82 316.918C1205.31 316.918 1205.76 316.88 1206.17 316.802C1206.58 316.709 1206.98 316.593 1207.35 316.453L1207.84 318.407C1207.34 318.578 1206.78 318.725 1206.14 318.849C1205.52 318.988 1204.86 319.058 1204.17 319.058C1203.3 319.058 1202.57 318.942 1201.98 318.709C1201.39 318.477 1200.91 318.151 1200.54 317.732C1200.18 317.298 1199.92 316.779 1199.75 316.174C1199.59 315.569 1199.51 314.903 1199.51 314.174V309.476ZM1211.75 315.593C1212.4 316.042 1213.07 316.399 1213.77 316.663C1214.48 316.911 1215.28 317.035 1216.17 317.035C1217.07 317.035 1217.73 316.911 1218.14 316.663C1218.56 316.399 1218.77 316.066 1218.77 315.662C1218.77 315.259 1218.5 314.926 1217.96 314.662C1217.42 314.383 1216.56 314.089 1215.4 313.779C1214.86 313.639 1214.33 313.468 1213.82 313.267C1213.31 313.065 1212.86 312.833 1212.47 312.569C1212.08 312.305 1211.77 312.003 1211.54 311.662C1211.31 311.321 1211.19 310.933 1211.19 310.499C1211.19 309.491 1211.62 308.669 1212.49 308.034C1213.36 307.398 1214.61 307.08 1216.24 307.08C1217.17 307.08 1218.04 307.235 1218.86 307.545C1219.69 307.855 1220.39 308.204 1220.98 308.592L1219.75 310.243C1219.24 309.902 1218.69 309.631 1218.1 309.429C1217.52 309.212 1216.91 309.104 1216.26 309.104C1215.38 309.104 1214.76 309.228 1214.4 309.476C1214.04 309.708 1213.86 310.003 1213.86 310.359C1213.86 310.561 1213.94 310.747 1214.1 310.918C1214.27 311.073 1214.49 311.22 1214.77 311.36C1215.07 311.484 1215.41 311.608 1215.79 311.732C1216.18 311.856 1216.61 311.972 1217.07 312.081C1217.74 312.251 1218.34 312.445 1218.86 312.662C1219.41 312.864 1219.86 313.096 1220.24 313.36C1220.62 313.623 1220.92 313.934 1221.12 314.29C1221.34 314.647 1221.45 315.058 1221.45 315.523C1221.45 316.019 1221.33 316.484 1221.1 316.918C1220.87 317.337 1220.52 317.709 1220.07 318.035C1219.62 318.345 1219.07 318.593 1218.4 318.779C1217.73 318.965 1216.97 319.058 1216.1 319.058C1215.03 319.058 1214 318.888 1213.03 318.547C1212.05 318.205 1211.2 317.787 1210.49 317.291L1211.75 315.593Z" fill="url(#paint11_linear_603_74)"/>
<defs>
<linearGradient id="paint0_linear_603_74" x1="862.521" y1="-232.775" x2="895.382" y2="1328.29" gradientUnits="userSpaceOnUse">
<stop stop-color="#FEF8EA"/>
<stop offset="1" stop-color="#FEF8EA" stop-opacity="0"/>
</linearGradient>
<linearGradient id="paint1_linear_603_74" x1="1" y1="239.794" x2="1898.02" y2="239.794" gradientUnits="userSpaceOnUse">
<stop stop-color="#F4B011"/>
<stop offset="1" stop-color="#F6E54B"/>
</linearGradient>
<linearGradient id="paint2_linear_603_74" x1="56.4825" y1="61.4921" x2="612.742" y2="58.522" gradientUnits="userSpaceOnUse">
<stop stop-color="#FEF8EA"/>
<stop offset="1" stop-color="#FEF8EA" stop-opacity="0"/>
</linearGradient>
<linearGradient id="paint3_linear_603_74" x1="56.4825" y1="61.4921" x2="434.535" y2="61.4921" gradientUnits="userSpaceOnUse">
<stop stop-color="#F4B011"/>
<stop offset="1" stop-color="#F6E54B" stop-opacity="0.920705"/>
</linearGradient>
<linearGradient id="paint4_linear_603_74" x1="1288.93" y1="61.4921" x2="1855.24" y2="61.4921" gradientUnits="userSpaceOnUse">
<stop stop-color="#F4B011"/>
<stop offset="1" stop-color="#F6E54B"/>
</linearGradient>
<linearGradient id="paint5_linear_603_74" x1="4.57097" y1="416.298" x2="1975.19" y2="423.172" gradientUnits="userSpaceOnUse">
<stop stop-color="#F4B011"/>
<stop offset="1" stop-color="#F6E54B"/>
</linearGradient>
<radialGradient id="paint6_radial_603_74" cx="0" cy="0" r="1" gradientUnits="userSpaceOnUse" gradientTransform="translate(877.009 223.5) scale(717.5 223.5)">
<stop stop-color="#FEF8EA"/>
<stop offset="0.522911" stop-color="#FEF8EA" stop-opacity="0.348018"/>
<stop offset="1" stop-color="#FEF8EA" stop-opacity="0"/>
</radialGradient>
<linearGradient id="paint7_linear_603_74" x1="426.459" y1="216.795" x2="1293.28" y2="216.795" gradientUnits="userSpaceOnUse">
<stop stop-color="#141414"/>
<stop offset="1" stop-color="#2C2C2C"/>
</linearGradient>
<linearGradient id="paint8_linear_603_74" x1="426.459" y1="216.795" x2="1293.28" y2="216.795" gradientUnits="userSpaceOnUse">
<stop stop-color="#F4B011"/>
<stop offset="1" stop-color="#F6E54B" stop-opacity="0.920705"/>
</linearGradient>
<linearGradient id="paint9_linear_603_74" x1="193.68" y1="-597.55" x2="1060.5" y2="-597.55" gradientUnits="userSpaceOnUse">
<stop stop-color="#141414"/>
<stop offset="1" stop-color="#2C2C2C"/>
</linearGradient>
<linearGradient id="paint10_linear_603_74" x1="193.68" y1="-597.55" x2="1060.5" y2="-597.55" gradientUnits="userSpaceOnUse">
<stop stop-color="#F4B011"/>
<stop offset="1" stop-color="#F6E54B" stop-opacity="0.920705"/>
</linearGradient>
<linearGradient id="paint11_linear_603_74" x1="498.685" y1="312.616" x2="1221.45" y2="312.616" gradientUnits="userSpaceOnUse">
<stop stop-opacity="0.85022"/>
<stop offset="0.420485" stop-opacity="0.449339"/>
<stop offset="1" stop-opacity="0.894273"/>
</linearGradient>
</defs>
</svg>
