<?xml version="1.0" encoding="UTF-8" standalone="no"?>
<!-- Created with Inkscape (http://www.inkscape.org/) -->

<svg
   width="1898.7576"
   height="473.56519"
   viewBox="0 0 1898.7576 473.56519"
   version="1.1"
   id="svg1"
   xml:space="preserve"
   inkscape:version="1.4 (86a8ad7, 2024-10-11)"
   sodipodi:docname="drawing.svg"
   xmlns:inkscape="http://www.inkscape.org/namespaces/inkscape"
   xmlns:sodipodi="http://sodipodi.sourceforge.net/DTD/sodipodi-0.dtd"
   xmlns:xlink="http://www.w3.org/1999/xlink"
   xmlns="http://www.w3.org/2000/svg"
   xmlns:svg="http://www.w3.org/2000/svg"><sodipodi:namedview
     id="namedview1"
     pagecolor="#505050"
     bordercolor="#eeeeee"
     borderopacity="1"
     inkscape:showpageshadow="0"
     inkscape:pageopacity="0"
     inkscape:pagecheckerboard="0"
     inkscape:deskcolor="#505050"
     inkscape:document-units="px"
     showguides="false"
     inkscape:zoom="0.23807397"
     inkscape:cx="684.66115"
     inkscape:cy="86.107691"
     inkscape:window-width="1366"
     inkscape:window-height="697"
     inkscape:window-x="-8"
     inkscape:window-y="-8"
     inkscape:window-maximized="1"
     inkscape:current-layer="layer1"
     showgrid="false"><sodipodi:guide
       position="1841.7443,1078.4552"
       orientation="1,0"
       id="guide17"
       inkscape:locked="false" /><inkscape:page
       x="0"
       y="0"
       width="1898.7576"
       height="473.56519"
       id="page2"
       margin="0"
       bleed="0" /></sodipodi:namedview><defs
     id="defs1"><linearGradient
       id="linearGradient1036"
       inkscape:collect="always"><stop
         style="stop-color:#fef8ea;stop-opacity:1;"
         offset="0"
         id="stop1035" /><stop
         style="stop-color:#fef8ea;stop-opacity:0.34801763;"
         offset="0.52291107"
         id="stop1037" /><stop
         style="stop-color:#fef8ea;stop-opacity:0;"
         offset="1"
         id="stop1036" /></linearGradient><linearGradient
       id="linearGradient1021"
       inkscape:collect="always"><stop
         style="stop-color:#000000;stop-opacity:0.85022026;"
         offset="0"
         id="stop1022" /><stop
         style="stop-color:#000000;stop-opacity:0.44933921;"
         offset="0.42048517"
         id="stop1023" /><stop
         style="stop-color:#000000;stop-opacity:0.8942731;"
         offset="1"
         id="stop1024" /></linearGradient><linearGradient
       id="linearGradient1009"
       inkscape:collect="always"><stop
         style="stop-color:#fef8ea;stop-opacity:1;"
         offset="0"
         id="stop1009" /><stop
         style="stop-color:#fef8ea;stop-opacity:0;"
         offset="1"
         id="stop1010" /></linearGradient><linearGradient
       id="linearGradient206"
       inkscape:collect="always"><stop
         style="stop-color:#f4b011;stop-opacity:1;"
         offset="0"
         id="stop205" /><stop
         style="stop-color:#f6e54b;stop-opacity:1;"
         offset="1"
         id="stop206" /></linearGradient><linearGradient
       id="linearGradient188"
       inkscape:collect="always"><stop
         style="stop-color:#fef8ea;stop-opacity:1;"
         offset="0"
         id="stop188" /><stop
         style="stop-color:#fef8ea;stop-opacity:0;"
         offset="1"
         id="stop189" /></linearGradient><linearGradient
       id="linearGradient100"
       inkscape:collect="always"><stop
         style="stop-color:#f4b011;stop-opacity:1;"
         offset="0"
         id="stop100" /><stop
         style="stop-color:#f6e54b;stop-opacity:0.92070484;"
         offset="1"
         id="stop101" /></linearGradient><linearGradient
       id="linearGradient82"
       inkscape:collect="always"><stop
         style="stop-color:#141414;stop-opacity:1;"
         offset="0"
         id="stop81" /><stop
         style="stop-color:#2c2c2c;stop-opacity:1;"
         offset="1"
         id="stop82" /></linearGradient><clipPath
       clipPathUnits="userSpaceOnUse"
       id="clipPath12-1-9-3"><rect
         style="opacity:0.842697;fill:#ea4949;fill-opacity:1;stroke:none;stroke-width:2.41657;stroke-linecap:square;stroke-miterlimit:3.1;stroke-opacity:1"
         id="rect12-5-8-4"
         width="2157.2766"
         height="956.70538"
         x="-46.27977"
         y="-400.76025"
         ry="17.215876" /></clipPath><clipPath
       clipPathUnits="userSpaceOnUse"
       id="clipPath12-1-9-3-0"><rect
         style="opacity:0.842697;fill:#ea4949;fill-opacity:1;stroke:none;stroke-width:2.41657;stroke-linecap:square;stroke-miterlimit:3.1;stroke-opacity:1"
         id="rect12-5-8-4-1"
         width="2157.2766"
         height="956.70538"
         x="-46.27977"
         y="-400.76025"
         ry="17.215876" /></clipPath><filter
       inkscape:collect="always"
       style="color-interpolation-filters:sRGB"
       id="filter95"
       x="-0.0036228603"
       y="-0.019746584"
       width="1.0072457"
       height="1.0394932"><feGaussianBlur
         inkscape:collect="always"
         stdDeviation="2.0984743"
         id="feGaussianBlur95" /></filter><linearGradient
       inkscape:collect="always"
       xlink:href="#linearGradient82"
       id="linearGradient97"
       gradientUnits="userSpaceOnUse"
       x1="-100.36615"
       y1="-1005.874"
       x2="1289.7891"
       y2="-1005.874" /><linearGradient
       inkscape:collect="always"
       xlink:href="#linearGradient82"
       id="linearGradient98"
       gradientUnits="userSpaceOnUse"
       x1="-100.36615"
       y1="-1005.874"
       x2="1289.7891"
       y2="-1005.874" /><linearGradient
       inkscape:collect="always"
       xlink:href="#linearGradient82"
       id="linearGradient99"
       gradientUnits="userSpaceOnUse"
       x1="-100.36615"
       y1="-1005.874"
       x2="1289.7891"
       y2="-1005.874" /><linearGradient
       inkscape:collect="always"
       xlink:href="#linearGradient100"
       id="linearGradient101"
       x1="1258.7051"
       y1="-978.92859"
       x2="1244.3029"
       y2="-832.41333"
       gradientUnits="userSpaceOnUse" /><linearGradient
       inkscape:collect="always"
       xlink:href="#linearGradient100"
       id="linearGradient102"
       gradientUnits="userSpaceOnUse"
       x1="1258.7051"
       y1="-978.92859"
       x2="1518.193"
       y2="-984.83917" /><linearGradient
       inkscape:collect="always"
       xlink:href="#linearGradient100"
       id="linearGradient103"
       gradientUnits="userSpaceOnUse"
       x1="1258.7051"
       y1="-978.92859"
       x2="1244.3029"
       y2="-832.41333" /><linearGradient
       inkscape:collect="always"
       xlink:href="#linearGradient100"
       id="linearGradient104"
       gradientUnits="userSpaceOnUse"
       x1="1258.7051"
       y1="-978.92859"
       x2="1244.3029"
       y2="-832.41333" /><linearGradient
       inkscape:collect="always"
       xlink:href="#linearGradient100"
       id="linearGradient105"
       gradientUnits="userSpaceOnUse"
       x1="1258.7051"
       y1="-978.92859"
       x2="1244.3029"
       y2="-832.41333" /><linearGradient
       inkscape:collect="always"
       xlink:href="#linearGradient100"
       id="linearGradient106"
       gradientUnits="userSpaceOnUse"
       x1="1258.7051"
       y1="-978.92859"
       x2="1244.3029"
       y2="-832.41333" /><filter
       inkscape:collect="always"
       style="color-interpolation-filters:sRGB"
       id="filter106"
       x="-0.0066670693"
       y="-0.0363392"
       width="1.0133341"
       height="1.0726784"><feGaussianBlur
         inkscape:collect="always"
         stdDeviation="1.7633013"
         id="feGaussianBlur106" /></filter><linearGradient
       inkscape:collect="always"
       xlink:href="#linearGradient188"
       id="linearGradient189"
       x1="138.51073"
       y1="128.89439"
       x2="694.77045"
       y2="125.92428"
       gradientUnits="userSpaceOnUse"
       gradientTransform="translate(-71.53718,-67.402274)" /><linearGradient
       inkscape:collect="always"
       xlink:href="#linearGradient100"
       id="linearGradient199"
       x1="-100.36615"
       y1="-1005.874"
       x2="1289.7891"
       y2="-1005.874"
       gradientUnits="userSpaceOnUse" /><linearGradient
       inkscape:collect="always"
       xlink:href="#linearGradient100"
       id="linearGradient201"
       x1="138.51073"
       y1="128.89439"
       x2="516.5636"
       y2="128.89439"
       gradientUnits="userSpaceOnUse"
       gradientTransform="translate(-71.53718,-67.402274)" /><linearGradient
       inkscape:collect="always"
       xlink:href="#linearGradient206"
       id="linearGradient208"
       x1="1405.6989"
       y1="81.492126"
       x2="1881.7655"
       y2="81.492126"
       gradientUnits="userSpaceOnUse"
       gradientTransform="matrix(1.1895638,0,0,0.9989969,-372.74616,-19.918253)" /><linearGradient
       inkscape:collect="always"
       xlink:href="#linearGradient1009"
       id="linearGradient1013"
       gradientUnits="userSpaceOnUse"
       x1="880.88251"
       y1="-166.47427"
       x2="903.1593"
       y2="1107.0669"
       gradientTransform="matrix(1.0187025,0,0,1.2259321,-24.345349,-28.689299)" /><linearGradient
       inkscape:collect="always"
       xlink:href="#linearGradient100"
       id="linearGradient1015"
       gradientUnits="userSpaceOnUse"
       x1="-100.36615"
       y1="-1005.874"
       x2="1289.7891"
       y2="-1005.874" /><linearGradient
       inkscape:collect="always"
       xlink:href="#linearGradient100"
       id="linearGradient1016"
       gradientUnits="userSpaceOnUse"
       x1="-100.36615"
       y1="-1005.874"
       x2="1289.7891"
       y2="-1005.874" /><linearGradient
       inkscape:collect="always"
       xlink:href="#linearGradient206"
       id="linearGradient1018"
       x1="11.529053"
       y1="260.58447"
       x2="1908.4709"
       y2="260.58447"
       gradientUnits="userSpaceOnUse"
       gradientTransform="matrix(1.00004,0,0,0.91819602,-0.03837075,0.52605215)" /><linearGradient
       inkscape:collect="always"
       xlink:href="#linearGradient1021"
       id="linearGradient1023"
       x1="598.81714"
       y1="302.61563"
       x2="1321.5786"
       y2="302.61563"
       gradientUnits="userSpaceOnUse" /><radialGradient
       inkscape:collect="always"
       xlink:href="#linearGradient1036"
       id="radialGradient1035"
       cx="955.54486"
       cy="238.34193"
       fx="955.54486"
       fy="238.34193"
       r="564.96948"
       gradientTransform="matrix(1.1700952,0,0,0.39780452,-159.11571,129.96993)"
       gradientUnits="userSpaceOnUse" /><linearGradient
       inkscape:collect="always"
       xlink:href="#linearGradient206"
       id="linearGradient1037"
       gradientUnits="userSpaceOnUse"
       gradientTransform="matrix(3.966895,0,0,1.5502654,-5561.1979,289.96322)"
       x1="1405.6989"
       y1="81.492126"
       x2="1902.4708"
       y2="82.169403" /></defs><g
     inkscape:label="Layer 1"
     inkscape:groupmode="layer"
     id="layer1"
     transform="translate(-10.621148,-0.03602806)"><rect
       style="opacity:0.60119;fill:url(#linearGradient1013);fill-opacity:1;stroke:url(#linearGradient1018);stroke-width:1.73999;stroke-linecap:square;stroke-miterlimit:3.1;stroke-dasharray:none"
       id="rect2-9-02-6-6-5-8-5-8-5-0-1-0-5"
       width="1897.0177"
       height="465.87506"
       x="11.491143"
       y="6.8561563"
       rx="0"
       ry="55.284081"
       inkscape:export-filename="groupie_assets\Banner_Container.svg"
       inkscape:export-xdpi="96"
       inkscape:export-ydpi="96" /><rect
       style="opacity:0.66369;fill:url(#linearGradient189);fill-opacity:1;stroke:url(#linearGradient201);stroke-width:0.7;stroke-linecap:square;stroke-miterlimit:3.1;stroke-dasharray:none"
       id="rect2-9-02-6-6-5-8-5-8-5-0"
       width="378.05286"
       height="62.888668"
       x="66.973572"
       y="30.047791"
       rx="0"
       ry="31.444334"
       inkscape:export-filename="newImages\Navbar_Container.png"
       inkscape:export-xdpi="96"
       inkscape:export-ydpi="96" /><rect
       style="opacity:0.330341;fill:#fef8ea;fill-opacity:1;stroke:url(#linearGradient208);stroke-width:0.763087;stroke-linecap:square;stroke-miterlimit:3.1;stroke-dasharray:none;stroke-opacity:1"
       id="rect2-9-02-6-6-5-8-5-8-5-0-1"
       width="566.31165"
       height="62.825581"
       x="1299.4224"
       y="30.079334"
       rx="0"
       ry="31.41279"
       inkscape:export-filename="newImages\Search_Container.svg"
       inkscape:export-xdpi="96"
       inkscape:export-ydpi="96" /><rect
       style="opacity:0.330341;fill:#fef8ea;fill-opacity:1;stroke:url(#linearGradient1037);stroke-width:1.7359;stroke-linecap:square;stroke-miterlimit:3.1;stroke-dasharray:none;stroke-opacity:1"
       id="rect2-9-02-6-6-5-8-5-8-5-0-1-5"
       width="1888.5065"
       height="97.494125"
       x="15.061992"
       y="367.55057"
       rx="0"
       ry="48.747063"
       inkscape:export-filename="newImages\Search_Container.svg"
       inkscape:export-xdpi="96"
       inkscape:export-ydpi="96" /><path
       d="m 1826.698,68.41648 9.4561,9.42767 m -5.4507,-19.07736 c 0,7.52574 -6.101,13.62668 -13.6267,13.62668 -7.5258,0 -13.6267,-6.10094 -13.6267,-13.62668 0,-7.525827 6.1009,-13.626696 13.6267,-13.626696 7.5257,0 13.6267,6.100869 13.6267,13.626696 z"
       stroke="#000000"
       stroke-width="3.63379"
       stroke-linecap="round"
       stroke-linejoin="round"
       id="path1"
       style="fill:none;stroke:#161616;stroke-opacity:1"
       inkscape:export-filename="assets\search.svg"
       inkscape:export-xdpi="96"
       inkscape:export-ydpi="96" /><rect
       style="opacity:0.60119;fill:url(#radialGradient1035);stroke:none;stroke-width:1.30195;stroke-linecap:square;stroke-miterlimit:3.1;stroke-dasharray:none;stroke-opacity:0.920705"
       id="rect2-9-02-6-6-5-8-5-8-5-0-1-0"
       width="1322.1362"
       height="449.49481"
       x="297.89453"
       y="0.036028065"
       rx="0"
       ry="0"
       inkscape:export-filename="newImages\Header.svg"
       inkscape:export-xdpi="96"
       inkscape:export-ydpi="96" /><g
       id="g1026"
       transform="translate(-4.6408386,22)"><g
         id="g24-4-3-5-7"
         style="fill:url(#linearGradient101);stroke:none;stroke-width:4.71662;stroke-dasharray:none;stroke-opacity:1;filter:url(#filter106)"
         transform="matrix(0.62354024,0,0,0.62354024,247.89297,717.07343)"><g
           id="g43-2-2-5-5"
           style="fill:url(#linearGradient106);fill-opacity:1;stroke:none;stroke-width:4.71662;stroke-dasharray:none;stroke-opacity:1"><g
             id="g94"
             style="fill:url(#linearGradient105);fill-opacity:1;filter:url(#filter95)"
             transform="translate(547.32712,186.93326)"><g
               id="g102"
               style="fill:url(#linearGradient104)"><path
                 d="m -36.887938,-954.70033 q 8.912414,0 11.276932,-3.27395 2.546404,-3.27395 2.546404,-11.09504 v -35.28588 h -11.640704 v -4.0015 h 52.383168 v 4.0015 h -7.093554 v 51.29184 H 7.8560183 q -3.273948,-4.54715 -9.2761861,-4.54715 -2.546404,0 -15.2784242,3.27395 -12.550134,3.27395 -21.462548,3.27395 -29.647418,0 -46.017158,-16.00597 -16.187852,-16.00597 -16.187852,-48.01792 0,-32.1938 16.915396,-49.6549 17.097284,-17.461 45.835272,-17.461 11.095046,0 22.190092,2.9102 11.2769322,2.7282 13.0957922,2.7282 1.81886004,0 2.72829005,-0.7275 0.90943005,-0.9094 2.00074605,-2.9102 h 2.000746 l 1.455088,39.4693 h -3.273948 q -8.9124141,-17.643 -18.0067143,-27.6467 -8.912414,-10.1856 -20.00746,-10.1856 -27.828558,0 -27.828558,54.3839 v 14.369 q 0,27.28291 6.729782,41.28813 6.911668,13.82334 19.643688,13.82334 z M 86.2488,-1034.3664 q -6.729782,0 -11.82259,8.7305 -5.092808,8.7306 -5.092808,20.735 v 48.74548 h 12.913906 v 3.27395 H 25.498876 v -3.27395 h 10.00373 v -80.02988 h -10.00373 v -3.2739 h 43.834526 v 17.461 q 2.364518,-9.2761 9.0943,-14.1871 6.729782,-5.0928 15.278424,-5.0928 8.548644,0 13.823334,4.911 5.45658,4.729 5.45658,13.6414 0,8.7305 -4.00149,13.4596 -4.00149,4.729 -12.368248,4.729 -8.18487,0 -12.186362,-5.4566 -3.819606,-5.4566 -0.90943,-15.0965 h 6.547896 q 4.54715,-9.2762 -3.819606,-9.2762 z m 87.12369,45.65339 v -15.46029 q 0,-17.643 -2.00075,-25.6459 -1.81886,-8.1849 -8.73052,-8.1849 -4.0015,0 -6.5479,2.3645 -2.36452,2.1826 -3.45583,7.4573 -1.63698,8.1849 -1.63698,24.9184 v 14.18712 q 0,19.82557 1.09132,23.82706 1.2732,4.00149 2.5464,6.5479 2.00075,4.36526 7.8211,4.36526 7.09355,0 9.27619,-8.18487 1.63697,-5.82035 1.63697,-26.19158 z m -11.27693,37.6504 q -22.73575,0 -34.37646,-11.6407 -11.6407,-11.64071 -11.6407,-33.28514 0,-21.82635 12.36825,-33.46705 12.55013,-11.8226 35.104,-11.8226 22.55386,0 33.64891,10.9132 11.09504,10.7313 11.09504,32.92136 0,46.38093 -46.19904,46.38093 z m 157.69504,-1.81886 h -41.47001 l -2.00075,-13.27768 q -2.91017,7.27544 -8.73052,11.27693 -5.63847,3.81961 -16.9154,3.81961 -28.19233,0 -28.19233,-30.37496 v -54.74773 h -10.18562 v -3.2739 h 44.01641 v 62.38689 q 0,10.91316 1.45509,14.369 1.63698,3.45583 6.18413,3.45583 4.72903,0 8.36675,-5.63847 3.63772,-5.63846 3.63772,-15.64219 v -55.65716 h -8.36675 v -3.2739 h 42.19755 v 83.30378 h 10.00373 z m 70.02603,-48.92733 q 0,-18.7343 -1.81886,-25.1003 -1.81886,-6.5479 -7.09355,-6.5479 -5.27469,0 -9.45807,6.9117 -4.18338,6.7298 -4.18338,18.1886 v 33.28514 q 0,7.8211 3.09206,13.27768 3.09206,5.45658 9.0943,5.45658 6.00224,0 8.18487,-8.00299 2.18263,-8.00298 2.18263,-28.01044 z m -22.91763,-37.6504 v 14.369 q 7.09355,-16.1879 25.10027,-16.1879 15.64219,0 24.19083,11.277 8.73053,11.2769 8.73053,34.19453 0,22.91764 -9.45807,33.8308 -9.27619,10.91316 -28.01044,10.91316 -8.73053,0 -13.0958,-2.18263 -4.36526,-2.18263 -7.09355,-6.72978 v 47.10847 h 23.46329 v 3.27395 h -67.29782 v -3.27395 h 10.00373 v -123.31875 h -9.63996 v -3.2739 z m 90.21534,-12.5501 q -9.63996,0 -13.82334,-4.911 -4.00149,-4.9109 -4.00149,-12.1863 0,-7.2755 4.36526,-12.0045 4.54715,-4.729 13.64145,-4.729 9.0943,0 13.82334,4.3652 4.72904,4.1834 4.72904,12.1864 0,7.8211 -4.54715,12.5501 -4.54715,4.7291 -14.18711,4.7291 z m -27.46479,12.5501 h 44.56207 v 83.30378 h 10.18562 v 3.27395 H 430.3771 v -3.27395 h 10.00373 v -80.02988 h -10.73128 z m 106.22134,88.39659 q -23.46329,0 -35.28588,-12.00448 -11.64071,-12.18636 -11.64071,-33.64891 0,-21.6444 13.09579,-33.1032 13.27768,-11.4589 33.64891,-11.4589 41.28813,0 39.65115,41.47004 H 524.0483 v 7.09356 q 0,17.82482 4.54715,26.91912 4.54715,9.0943 15.82408,9.0943 21.09878,0 27.64667,-22.55386 l 3.27395,0.54566 q -3.45583,13.09579 -12.55013,20.37123 -8.91242,7.27544 -26.91913,7.27544 z m -11.6407,-52.38319 h 18.73425 v -8.9124 q 0,-14.7328 -1.81886,-20.0075 -1.63697,-5.4565 -6.91166,-5.4565 -5.09281,0 -7.63922,5.8203 -2.36451,5.6385 -2.36451,19.6437 z m 204.25815,-76.7559 1.81886,45.6534 h -3.45583 q -8.00299,-24.1908 -14.18711,-32.9214 -6.18412,-8.9124 -17.82483,-8.9124 h -2.18263 v 119.68102 h 15.46031 v 3.81961 h -66.38839 v -3.81961 h 15.46031 v -119.68102 h -2.36452 q -11.6407,0 -18.00671,9.2762 -6.36601,9.0943 -14.00522,32.5576 h -3.45584 l 1.81886,-45.6534 z m 67.47974,45.8353 q -6.72978,0 -11.82259,8.7305 -5.0928,8.7306 -5.0928,20.735 v 48.74548 h 12.9139 v 3.27395 h -56.74843 v -3.27395 h 10.00373 v -80.02988 h -10.00373 v -3.2739 h 43.83453 v 17.461 q 2.36451,-9.2761 9.0943,-14.1871 6.72978,-5.0928 15.27842,-5.0928 8.54864,0 13.82334,4.911 5.45658,4.729 5.45658,13.6414 0,8.7305 -4.0015,13.4596 -4.00149,4.729 -12.36824,4.729 -8.18487,0 -12.18637,-5.4566 -3.8196,-5.4566 -0.90943,-15.0965 h 6.5479 q 4.54715,-9.2762 -3.81961,-9.2762 z m 70.20826,38.74172 h 5.2747 v -14.00522 q 0,-17.2792 -2.00075,-23.0995 -1.81886,-6.0023 -7.27544,-6.0023 -3.27395,0 -6.00224,1.8189 -2.5464,1.637 -2.5464,4.729 0,2.9102 1.09131,6.0023 h 4.54715 q 1.45509,3.8196 1.45509,9.2762 0,5.2747 -4.54715,9.2761 -4.54715,3.8196 -11.45882,3.8196 -15.64219,0 -15.64219,-15.0965 0,-22.372 38.01417,-22.372 21.64444,0 29.82931,7.4574 8.36675,7.2754 8.36675,26.9191 v 36.92285 q 0,9.45807 5.2747,9.45807 6.18412,0 7.27544,-18.73426 l 2.72829,0.18189 q -0.72755,16.00596 -6.00224,22.0082 -5.2747,6.00224 -17.27917,6.00224 -21.82632,0 -25.10027,-13.45956 -2.36452,6.91166 -7.09355,10.18561 -4.72904,3.27395 -13.82334,3.27395 -26.91913,0 -26.91913,-22.00821 0,-12.9139 10.18562,-17.64294 10.3675,-4.91092 31.64816,-4.91092 z m -7.27544,22.37198 q 0,9.45807 0.90943,12.18636 1.09132,2.72829 3.81961,2.72829 2.91017,0 5.27469,-4.54715 2.54641,-4.72904 2.54641,-12.91391 v -16.91539 h -1.27321 q -11.27693,0 -11.27693,16.55162 z m 114.40623,-64.7514 q -8.00299,0 -11.45882,8.7305 -3.45583,8.7305 -3.45583,28.9199 v 9.45806 q 0,18.00671 4.00149,25.82781 4.00149,7.8211 14.73276,7.8211 10.73128,0 17.09729,-7.27544 6.36598,-7.27544 8.18488,-16.55163 l 3.2739,0.36377 q -3.4558,15.6422 -12.73198,22.55387 -9.45808,7.09355 -26.0097,7.09355 -21.09878,0 -32.37571,-11.27693 -11.27693,-11.45882 -11.27693,-33.28514 0,-22.00822 12.73202,-33.83082 12.9139,-11.8226 35.83154,-11.8226 16.18785,0 24.7365,6.366 8.54866,6.1842 8.54866,15.6422 0,9.4581 -4.1834,13.8234 -4.00149,4.3652 -11.27693,4.3652 -7.09356,0 -11.45882,-3.8196 -4.36526,-3.8196 -4.36526,-11.2769 0,-3.2739 0.90943,-6.5479 h 6.00223 q 1.27321,-3.6377 1.27321,-6.5479 0,-8.7305 -8.73053,-8.7305 z m 182.97737,86.94149 q -23.4633,0 -35.2859,-12.00448 -11.6407,-12.18636 -11.6407,-33.64891 0,-21.6444 13.0958,-33.1032 13.2777,-11.4589 33.6489,-11.4589 41.2882,0 39.6512,41.47004 h -51.2919 v 7.09356 q 0,17.82482 4.5472,26.91912 4.5471,9.0943 15.8241,9.0943 21.0987,0 27.6466,-22.55386 l 3.274,0.54566 q -3.4558,13.09579 -12.5501,20.37123 -8.9125,7.27544 -26.9192,7.27544 z m -11.6407,-52.38319 h 18.7343 v -8.9124 q 0,-14.7328 -1.8189,-20.0075 -1.637,-5.4565 -6.9116,-5.4565 -5.0929,0 -7.6393,5.8203 -2.3645,5.6385 -2.3645,19.6437 z m 118.408,-30.9206 q -6.7298,0 -11.8226,8.7305 -5.0928,8.7306 -5.0928,20.735 v 48.74548 h 12.9139 v 3.27395 h -56.7484 v -3.27395 h 10.0037 v -80.02988 h -10.0037 v -3.2739 h 43.8345 v 17.461 q 2.3645,-9.2761 9.0943,-14.1871 6.7298,-5.0928 15.2785,-5.0928 8.5486,0 13.8233,4.911 5.4566,4.729 5.4566,13.6414 0,8.7305 -4.0015,13.4596 -4.0015,4.729 -12.3683,4.729 -8.1848,0 -12.1863,-5.4566 -3.8196,-5.4566 -0.9095,-15.0965 h 6.5479 q 4.5472,-9.2762 -3.8196,-9.2762 z"
                 id="text29-2-5-3-5-8-3-9"
                 style="font-size:181.886px;font-family:'Abril Fatface';-inkscape-font-specification:'Abril Fatface, Normal';fill:url(#linearGradient103);fill-opacity:1;stroke:none;stroke-width:4.71662;stroke-linecap:square;stroke-miterlimit:3.1;stroke-dasharray:none;stroke-opacity:1"
                 aria-label="Groupie Trac   er" /><path
                 style="fill:url(#linearGradient102);fill-opacity:1;stroke:none;stroke-width:4.71662;stroke-dasharray:none;stroke-opacity:1"
                 d="m 1442.7272,295.3065 c -1.4508,-7.9479 -2.1447,-16.58966 -3.5324,-24.66374 12.2372,-12.30032 26.493,-28.63768 28.0069,-54.68913 0.5045,-8.95717 -1.3246,-16.46351 -3.5324,-24.66373 -1.5139,-5.67708 -5.5509,-20.87901 -11.6064,-18.41895 -21.1945,8.64176 -26.1777,50.46286 -20.1852,77.01897 -14.6343,15.07578 -39.3611,30.21463 -43.0827,59.4831 -1.9554,15.39119 2.9647,28.95308 9.9664,38.85642 9.0203,12.80494 26.4299,24.28526 48.5075,19.23896 2.7124,18.48203 9.588,45.66889 -8.3264,53.42758 -6.5602,2.83853 -21.3206,3.09084 -22.7714,-5.36168 19.7436,3.09084 19.6805,-24.60067 5.6771,-27.88075 -11.6065,-2.77546 -18.5451,8.57869 -19.0498,16.08505 -0.9461,14.06651 12.3635,24.22216 26.9977,23.90678 15.7066,-0.31541 26.8084,-9.90334 26.3668,-29.71001 -0.2522,-10.97568 -3.4692,-19.4913 -3.9739,-32.04393 12.6788,-6.05554 24.0329,-14.7604 25.5468,-32.04392 1.7662,-20.56364 -11.1018,-39.86566 -35.0086,-38.54102 z m 3.4693,-96.69949 c 5.6771,-5.48783 15.2651,-4.92013 15.7067,5.23553 0.4415,9.84028 -4.6679,18.60818 -9.3988,25.42068 -4.9202,7.0648 -10.0926,13.18341 -16.5266,16.90507 -3.5955,-15.39119 1.1985,-38.73028 10.2187,-47.56128 z m -47.8136,126.53568 c 0.757,-13.05728 6.8125,-22.58214 13.2466,-30.27774 6.9386,-8.32638 15.328,-14.6973 23.2129,-20.94211 1.3877,7.06484 2.0815,14.82347 3.0277,22.32983 -10.6603,4.73089 -22.7082,13.12035 -22.2036,30.3408 0.1891,5.9294 2.6493,11.66953 5.9925,16.14812 3.0908,4.03703 7.7586,9.02024 13.2464,8.26331 -0.2522,-3.34318 -4.2893,-4.16321 -6.3078,-6.18171 -10.1557,-9.77717 -2.5232,-29.96232 11.7326,-31.66545 1.9554,16.71581 4.2893,32.9901 6.3709,49.57976 -30.3408,4.60473 -49.769,-14.31885 -48.3182,-37.59481 z m 52.8599,35.95479 c -1.7031,-16.46353 -4.5417,-31.98086 -6.1186,-48.57052 6.1186,0.75692 11.3541,3.02777 15.0126,6.43401 12.6159,11.85878 7.3803,37.84716 -8.894,42.13651 z"
                 id="path2-34-9-1-0-1-1-1"
                 clip-path="url(#clipPath12-1-9-3-0)"
                 transform="translate(-373.31845,-1306.0022)" /></g></g></g></g><g
         id="g43-2-2-5"
         style="fill:url(#linearGradient99);fill-opacity:1;stroke:url(#linearGradient199);stroke-width:1.12262;stroke-dasharray:none;stroke-opacity:1"
         transform="matrix(0.62354024,0,0,0.62354024,589.17342,833.99831)"><path
           d="m -36.887938,-954.70033 q 8.912414,0 11.276932,-3.27395 2.546404,-3.27395 2.546404,-11.09504 v -35.28588 h -11.640704 v -4.0015 h 52.383168 v 4.0015 h -7.093554 v 51.29184 H 7.8560183 q -3.273948,-4.54715 -9.2761861,-4.54715 -2.546404,0 -15.2784242,3.27395 -12.550134,3.27395 -21.462548,3.27395 -29.647418,0 -46.017158,-16.00597 -16.187852,-16.00597 -16.187852,-48.01792 0,-32.1938 16.915396,-49.6549 17.097284,-17.461 45.835272,-17.461 11.095046,0 22.190092,2.9102 11.2769322,2.7282 13.0957922,2.7282 1.81886004,0 2.72829005,-0.7275 0.90943005,-0.9094 2.00074605,-2.9102 h 2.000746 l 1.455088,39.4693 h -3.273948 q -8.9124141,-17.643 -18.0067143,-27.6467 -8.912414,-10.1856 -20.00746,-10.1856 -27.828558,0 -27.828558,54.3839 v 14.369 q 0,27.28291 6.729782,41.28813 6.911668,13.82334 19.643688,13.82334 z M 86.2488,-1034.3664 q -6.729782,0 -11.82259,8.7305 -5.092808,8.7306 -5.092808,20.735 v 48.74548 h 12.913906 v 3.27395 H 25.498876 v -3.27395 h 10.00373 v -80.02988 h -10.00373 v -3.2739 h 43.834526 v 17.461 q 2.364518,-9.2761 9.0943,-14.1871 6.729782,-5.0928 15.278424,-5.0928 8.548644,0 13.823334,4.911 5.45658,4.729 5.45658,13.6414 0,8.7305 -4.00149,13.4596 -4.00149,4.729 -12.368248,4.729 -8.18487,0 -12.186362,-5.4566 -3.819606,-5.4566 -0.90943,-15.0965 h 6.547896 q 4.54715,-9.2762 -3.819606,-9.2762 z m 87.12369,45.65339 v -15.46029 q 0,-17.643 -2.00075,-25.6459 -1.81886,-8.1849 -8.73052,-8.1849 -4.0015,0 -6.5479,2.3645 -2.36452,2.1826 -3.45583,7.4573 -1.63698,8.1849 -1.63698,24.9184 v 14.18712 q 0,19.82557 1.09132,23.82706 1.2732,4.00149 2.5464,6.5479 2.00075,4.36526 7.8211,4.36526 7.09355,0 9.27619,-8.18487 1.63697,-5.82035 1.63697,-26.19158 z m -11.27693,37.6504 q -22.73575,0 -34.37646,-11.6407 -11.6407,-11.64071 -11.6407,-33.28514 0,-21.82635 12.36825,-33.46705 12.55013,-11.8226 35.104,-11.8226 22.55386,0 33.64891,10.9132 11.09504,10.7313 11.09504,32.92136 0,46.38093 -46.19904,46.38093 z m 157.69504,-1.81886 h -41.47001 l -2.00075,-13.27768 q -2.91017,7.27544 -8.73052,11.27693 -5.63847,3.81961 -16.9154,3.81961 -28.19233,0 -28.19233,-30.37496 v -54.74773 h -10.18562 v -3.2739 h 44.01641 v 62.38689 q 0,10.91316 1.45509,14.369 1.63698,3.45583 6.18413,3.45583 4.72903,0 8.36675,-5.63847 3.63772,-5.63846 3.63772,-15.64219 v -55.65716 h -8.36675 v -3.2739 h 42.19755 v 83.30378 h 10.00373 z m 70.02603,-48.92733 q 0,-18.7343 -1.81886,-25.1003 -1.81886,-6.5479 -7.09355,-6.5479 -5.27469,0 -9.45807,6.9117 -4.18338,6.7298 -4.18338,18.1886 v 33.28514 q 0,7.8211 3.09206,13.27768 3.09206,5.45658 9.0943,5.45658 6.00224,0 8.18487,-8.00299 2.18263,-8.00298 2.18263,-28.01044 z m -22.91763,-37.6504 v 14.369 q 7.09355,-16.1879 25.10027,-16.1879 15.64219,0 24.19083,11.277 8.73053,11.2769 8.73053,34.19453 0,22.91764 -9.45807,33.8308 -9.27619,10.91316 -28.01044,10.91316 -8.73053,0 -13.0958,-2.18263 -4.36526,-2.18263 -7.09355,-6.72978 v 47.10847 h 23.46329 v 3.27395 h -67.29782 v -3.27395 h 10.00373 v -123.31875 h -9.63996 v -3.2739 z m 90.21534,-12.5501 q -9.63996,0 -13.82334,-4.911 -4.00149,-4.9109 -4.00149,-12.1863 0,-7.2755 4.36526,-12.0045 4.54715,-4.729 13.64145,-4.729 9.0943,0 13.82334,4.3652 4.72904,4.1834 4.72904,12.1864 0,7.8211 -4.54715,12.5501 -4.54715,4.7291 -14.18711,4.7291 z m -27.46479,12.5501 h 44.56207 v 83.30378 h 10.18562 v 3.27395 H 430.3771 v -3.27395 h 10.00373 v -80.02988 h -10.73128 z m 106.22134,88.39659 q -23.46329,0 -35.28588,-12.00448 -11.64071,-12.18636 -11.64071,-33.64891 0,-21.6444 13.09579,-33.1032 13.27768,-11.4589 33.64891,-11.4589 41.28813,0 39.65115,41.47004 H 524.0483 v 7.09356 q 0,17.82482 4.54715,26.91912 4.54715,9.0943 15.82408,9.0943 21.09878,0 27.64667,-22.55386 l 3.27395,0.54566 q -3.45583,13.09579 -12.55013,20.37123 -8.91242,7.27544 -26.91913,7.27544 z m -11.6407,-52.38319 h 18.73425 v -8.9124 q 0,-14.7328 -1.81886,-20.0075 -1.63697,-5.4565 -6.91166,-5.4565 -5.09281,0 -7.63922,5.8203 -2.36451,5.6385 -2.36451,19.6437 z m 204.25815,-76.7559 1.81886,45.6534 h -3.45583 q -8.00299,-24.1908 -14.18711,-32.9214 -6.18412,-8.9124 -17.82483,-8.9124 h -2.18263 v 119.68102 h 15.46031 v 3.81961 h -66.38839 v -3.81961 h 15.46031 v -119.68102 h -2.36452 q -11.6407,0 -18.00671,9.2762 -6.36601,9.0943 -14.00522,32.5576 h -3.45584 l 1.81886,-45.6534 z m 67.47974,45.8353 q -6.72978,0 -11.82259,8.7305 -5.0928,8.7306 -5.0928,20.735 v 48.74548 h 12.9139 v 3.27395 h -56.74843 v -3.27395 h 10.00373 v -80.02988 h -10.00373 v -3.2739 h 43.83453 v 17.461 q 2.36451,-9.2761 9.0943,-14.1871 6.72978,-5.0928 15.27842,-5.0928 8.54864,0 13.82334,4.911 5.45658,4.729 5.45658,13.6414 0,8.7305 -4.0015,13.4596 -4.00149,4.729 -12.36824,4.729 -8.18487,0 -12.18637,-5.4566 -3.8196,-5.4566 -0.90943,-15.0965 h 6.5479 q 4.54715,-9.2762 -3.81961,-9.2762 z m 70.20826,38.74172 h 5.2747 v -14.00522 q 0,-17.2792 -2.00075,-23.0995 -1.81886,-6.0023 -7.27544,-6.0023 -3.27395,0 -6.00224,1.8189 -2.5464,1.637 -2.5464,4.729 0,2.9102 1.09131,6.0023 h 4.54715 q 1.45509,3.8196 1.45509,9.2762 0,5.2747 -4.54715,9.2761 -4.54715,3.8196 -11.45882,3.8196 -15.64219,0 -15.64219,-15.0965 0,-22.372 38.01417,-22.372 21.64444,0 29.82931,7.4574 8.36675,7.2754 8.36675,26.9191 v 36.92285 q 0,9.45807 5.2747,9.45807 6.18412,0 7.27544,-18.73426 l 2.72829,0.18189 q -0.72755,16.00596 -6.00224,22.0082 -5.2747,6.00224 -17.27917,6.00224 -21.82632,0 -25.10027,-13.45956 -2.36452,6.91166 -7.09355,10.18561 -4.72904,3.27395 -13.82334,3.27395 -26.91913,0 -26.91913,-22.00821 0,-12.9139 10.18562,-17.64294 10.3675,-4.91092 31.64816,-4.91092 z m -7.27544,22.37198 q 0,9.45807 0.90943,12.18636 1.09132,2.72829 3.81961,2.72829 2.91017,0 5.27469,-4.54715 2.54641,-4.72904 2.54641,-12.91391 v -16.91539 h -1.27321 q -11.27693,0 -11.27693,16.55162 z m 114.40623,-64.7514 q -8.00299,0 -11.45882,8.7305 -3.45583,8.7305 -3.45583,28.9199 v 9.45806 q 0,18.00671 4.00149,25.82781 4.00149,7.8211 14.73276,7.8211 10.73128,0 17.09729,-7.27544 6.36598,-7.27544 8.18488,-16.55163 l 3.2739,0.36377 q -3.4558,15.6422 -12.73198,22.55387 -9.45808,7.09355 -26.0097,7.09355 -21.09878,0 -32.37571,-11.27693 -11.27693,-11.45882 -11.27693,-33.28514 0,-22.00822 12.73202,-33.83082 12.9139,-11.8226 35.83154,-11.8226 16.18785,0 24.7365,6.366 8.54866,6.1842 8.54866,15.6422 0,9.4581 -4.1834,13.8234 -4.00149,4.3652 -11.27693,4.3652 -7.09356,0 -11.45882,-3.8196 -4.36526,-3.8196 -4.36526,-11.2769 0,-3.2739 0.90943,-6.5479 h 6.00223 q 1.27321,-3.6377 1.27321,-6.5479 0,-8.7305 -8.73053,-8.7305 z m 182.97737,86.94149 q -23.4633,0 -35.2859,-12.00448 -11.6407,-12.18636 -11.6407,-33.64891 0,-21.6444 13.0958,-33.1032 13.2777,-11.4589 33.6489,-11.4589 41.2882,0 39.6512,41.47004 h -51.2919 v 7.09356 q 0,17.82482 4.5472,26.91912 4.5471,9.0943 15.8241,9.0943 21.0987,0 27.6466,-22.55386 l 3.274,0.54566 q -3.4558,13.09579 -12.5501,20.37123 -8.9125,7.27544 -26.9192,7.27544 z m -11.6407,-52.38319 h 18.7343 v -8.9124 q 0,-14.7328 -1.8189,-20.0075 -1.637,-5.4565 -6.9116,-5.4565 -5.0929,0 -7.6393,5.8203 -2.3645,5.6385 -2.3645,19.6437 z m 118.408,-30.9206 q -6.7298,0 -11.8226,8.7305 -5.0928,8.7306 -5.0928,20.735 v 48.74548 h 12.9139 v 3.27395 h -56.7484 v -3.27395 h 10.0037 v -80.02988 h -10.0037 v -3.2739 h 43.8345 v 17.461 q 2.3645,-9.2761 9.0943,-14.1871 6.7298,-5.0928 15.2785,-5.0928 8.5486,0 13.8233,4.911 5.4566,4.729 5.4566,13.6414 0,8.7305 -4.0015,13.4596 -4.0015,4.729 -12.3683,4.729 -8.1848,0 -12.1863,-5.4566 -3.8196,-5.4566 -0.9095,-15.0965 h 6.5479 q 4.5472,-9.2762 -3.8196,-9.2762 z"
           id="text29-2-5-3-5-8-3"
           style="font-size:181.886px;font-family:'Abril Fatface';-inkscape-font-specification:'Abril Fatface, Normal';fill:url(#linearGradient97);fill-opacity:1;stroke:url(#linearGradient1015);stroke-width:1.12262;stroke-linecap:square;stroke-miterlimit:3.1;stroke-dasharray:none;stroke-opacity:1"
           aria-label="Groupie Trac   er" /><path
           style="fill:url(#linearGradient98);fill-opacity:1;stroke:url(#linearGradient1016);stroke-width:1.12262;stroke-dasharray:none;stroke-opacity:1"
           d="m 1442.7272,295.3065 c -1.4508,-7.9479 -2.1447,-16.58966 -3.5324,-24.66374 12.2372,-12.30032 26.493,-28.63768 28.0069,-54.68913 0.5045,-8.95717 -1.3246,-16.46351 -3.5324,-24.66373 -1.5139,-5.67708 -5.5509,-20.87901 -11.6064,-18.41895 -21.1945,8.64176 -26.1777,50.46286 -20.1852,77.01897 -14.6343,15.07578 -39.3611,30.21463 -43.0827,59.4831 -1.9554,15.39119 2.9647,28.95308 9.9664,38.85642 9.0203,12.80494 26.4299,24.28526 48.5075,19.23896 2.7124,18.48203 9.588,45.66889 -8.3264,53.42758 -6.5602,2.83853 -21.3206,3.09084 -22.7714,-5.36168 19.7436,3.09084 19.6805,-24.60067 5.6771,-27.88075 -11.6065,-2.77546 -18.5451,8.57869 -19.0498,16.08505 -0.9461,14.06651 12.3635,24.22216 26.9977,23.90678 15.7066,-0.31541 26.8084,-9.90334 26.3668,-29.71001 -0.2522,-10.97568 -3.4692,-19.4913 -3.9739,-32.04393 12.6788,-6.05554 24.0329,-14.7604 25.5468,-32.04392 1.7662,-20.56364 -11.1018,-39.86566 -35.0086,-38.54102 z m 3.4693,-96.69949 c 5.6771,-5.48783 15.2651,-4.92013 15.7067,5.23553 0.4415,9.84028 -4.6679,18.60818 -9.3988,25.42068 -4.9202,7.0648 -10.0926,13.18341 -16.5266,16.90507 -3.5955,-15.39119 1.1985,-38.73028 10.2187,-47.56128 z m -47.8136,126.53568 c 0.757,-13.05728 6.8125,-22.58214 13.2466,-30.27774 6.9386,-8.32638 15.328,-14.6973 23.2129,-20.94211 1.3877,7.06484 2.0815,14.82347 3.0277,22.32983 -10.6603,4.73089 -22.7082,13.12035 -22.2036,30.3408 0.1891,5.9294 2.6493,11.66953 5.9925,16.14812 3.0908,4.03703 7.7586,9.02024 13.2464,8.26331 -0.2522,-3.34318 -4.2893,-4.16321 -6.3078,-6.18171 -10.1557,-9.77717 -2.5232,-29.96232 11.7326,-31.66545 1.9554,16.71581 4.2893,32.9901 6.3709,49.57976 -30.3408,4.60473 -49.769,-14.31885 -48.3182,-37.59481 z m 52.8599,35.95479 c -1.7031,-16.46353 -4.5417,-31.98086 -6.1186,-48.57052 6.1186,0.75692 11.3541,3.02777 15.0126,6.43401 12.6159,11.85878 7.3803,37.84716 -8.894,42.13651 z"
           id="path2-34-9-1-0-1-1"
           clip-path="url(#clipPath12-1-9-3)"
           transform="translate(-373.31845,-1306.0022)" /></g><path
         d="m 600.39873,304.98802 q 0.86057,0.76753 1.93046,1.25596 1.09316,0.46517 2.20957,0.46517 1.39551,0 2.11653,-0.53494 0.72102,-0.53495 0.72102,-1.41878 0,-0.46517 -0.18607,-0.79079 -0.18607,-0.32562 -0.53495,-0.55821 -0.32562,-0.25584 -0.81405,-0.46517 -0.46517,-0.20933 -1.02338,-0.41865 l -2.07001,-0.90709 q -0.60473,-0.23259 -1.18619,-0.58146 -0.58147,-0.34888 -1.04664,-0.83731 -0.46517,-0.48843 -0.74427,-1.13968 -0.27911,-0.65124 -0.27911,-1.48855 0,-0.90708 0.3954,-1.67462 0.39539,-0.79079 1.09315,-1.37225 0.69776,-0.58147 1.65136,-0.90709 0.97686,-0.32562 2.13979,-0.32562 1.39552,0 2.65148,0.53495 1.27923,0.51169 2.23283,1.39552 l -1.39552,1.72113 q -0.76753,-0.60472 -1.60484,-0.9536 -0.83731,-0.34888 -1.88395,-0.34888 -1.18618,0 -1.88394,0.48843 -0.6745,0.46517 -0.6745,1.30248 0,0.44192 0.20933,0.76754 0.20932,0.30236 0.5582,0.5582 0.37214,0.23259 0.83731,0.41866 0.48843,0.18607 1.00012,0.39539 l 2.00024,0.86057 q 0.72102,0.27911 1.32574,0.65124 0.60472,0.37214 1.04664,0.86057 0.44191,0.48843 0.6745,1.13967 0.25584,0.62798 0.25584,1.46529 0,0.93035 -0.39539,1.7444 -0.37214,0.81405 -1.09316,1.44203 -0.72101,0.60473 -1.76765,0.97686 -1.04664,0.34888 -2.37238,0.34888 -1.60484,0 -3.07013,-0.58146 -1.4653,-0.58147 -2.60497,-1.65136 z m 15.44372,-5.51229 h -3.04688 v -2.00024 l 3.16317,-0.11629 0.34888,-3.11666 h 2.20957 v 3.11666 h 5.18666 v 2.11653 h -5.18666 v 4.69824 q 0,1.41877 0.58146,2.09327 0.58147,0.65124 2.04676,0.65124 0.74427,0 1.349,-0.11629 0.62798,-0.13955 1.18618,-0.34888 l 0.48844,1.95372 q -0.74428,0.25585 -1.69788,0.44192 -0.93035,0.20932 -1.97698,0.20932 -1.30249,0 -2.18631,-0.34888 -0.88383,-0.34888 -1.44204,-0.97686 -0.53494,-0.65124 -0.79079,-1.55832 -0.23258,-0.90709 -0.23258,-2.00024 z m 11.18739,6.2333 q 0,-0.9536 0.44192,-1.67462 0.44191,-0.74427 1.39551,-1.25596 0.9536,-0.51169 2.44215,-0.83731 1.48855,-0.32562 3.60509,-0.46517 -0.0698,-0.97686 -0.69776,-1.60484 -0.62798,-0.62799 -2.0235,-0.62799 -0.97686,0 -1.93046,0.37214 -0.93035,0.34888 -1.81417,0.83731 l -0.97686,-1.79091 q 1.04663,-0.60473 2.39563,-1.09316 1.349,-0.48843 2.81429,-0.48843 2.39564,0 3.6516,1.27923 1.25597,1.25596 1.25597,3.6516 v 6.76825 h -2.18631 l -0.20933,-1.41878 h -0.0698 q -0.90708,0.69776 -2.02349,1.20945 -1.09316,0.48843 -2.25609,0.48843 -0.83731,0 -1.53507,-0.25584 -0.69775,-0.23259 -1.20944,-0.6745 -0.51169,-0.44191 -0.7908,-1.04664 -0.2791,-0.62798 -0.2791,-1.37226 z m 2.58171,-0.20932 q 0,0.76753 0.58146,1.11641 0.60472,0.34888 1.46529,0.34888 0.86057,0 1.65136,-0.37214 0.81405,-0.3954 1.60485,-1.02338 v -2.41889 q -1.53507,0.11629 -2.55845,0.32562 -1.02338,0.18607 -1.6281,0.48843 -0.60472,0.30236 -0.86057,0.69776 -0.25584,0.37213 -0.25584,0.83731 z m 11.79211,5.65184 q 0.23259,0.0698 0.46518,0.11629 0.23258,0.0465 0.48843,0.0465 1.09315,0 1.74439,-0.55821 0.65124,-0.53495 1.00012,-1.39552 l 0.2791,-0.72101 -5.11689,-11.28042 h 2.67474 l 2.34912,5.60532 q 0.32562,0.76753 0.62798,1.6281 0.30236,0.86057 0.62798,1.72114 h 0.093 q 0.25584,-0.81405 0.55821,-1.67462 0.30236,-0.86057 0.58146,-1.67462 l 2.07002,-5.60532 h 2.53518 l -4.76801,11.93166 q -0.37214,0.97686 -0.83731,1.74439 -0.44191,0.76754 -1.04664,1.30249 -0.60472,0.5582 -1.39551,0.8373 -0.79079,0.30237 -1.81417,0.30237 -0.46517,0 -0.88383,-0.0698 -0.41865,-0.0465 -0.74427,-0.16281 l 0.51168,-2.09327 z m 27.23584,-9.93143 q 0,-1.86068 0.53495,-3.32598 0.53495,-1.48855 1.46529,-2.51192 0.9536,-1.02338 2.23283,-1.55833 1.30248,-0.53495 2.81429,-0.53495 1.39551,0 2.48867,0.58147 1.09315,0.58146 1.83743,1.32574 l -1.51181,1.67462 q -0.55821,-0.55821 -1.25597,-0.88383 -0.6745,-0.34888 -1.55832,-0.34888 -0.95361,0 -1.7444,0.3954 -0.79079,0.37213 -1.349,1.09315 -0.5582,0.69776 -0.88382,1.72114 -0.30237,1.02338 -0.30237,2.3026 0,1.30248 0.30237,2.34912 0.32562,1.02338 0.88382,1.74439 0.58147,0.69776 1.37226,1.09316 0.81405,0.37213 1.79091,0.37213 0.93035,0 1.65136,-0.39539 0.74428,-0.3954 1.39552,-1.11642 l 1.48855,1.65137 q -0.93034,1.06989 -2.09327,1.65136 -1.16293,0.5582 -2.60497,0.5582 -1.46529,0 -2.74451,-0.51169 -1.25597,-0.51169 -2.20957,-1.51181 -0.93034,-1.00012 -1.46529,-2.46541 -0.53495,-1.46529 -0.53495,-3.34924 z m 13.79236,1.86069 q 0,-1.41877 0.46517,-2.53519 0.48843,-1.11641 1.27922,-1.88394 0.7908,-0.76754 1.83743,-1.16293 1.04664,-0.41866 2.16305,-0.41866 1.11642,0 2.16305,0.41866 1.04664,0.39539 1.83743,1.16293 0.7908,0.76753 1.25597,1.88394 0.48843,1.11642 0.48843,2.53519 0,1.41878 -0.48843,2.53519 -0.46517,1.11641 -1.25597,1.88395 -0.79079,0.76753 -1.83743,1.16293 -1.04663,0.39539 -2.16305,0.39539 -1.11641,0 -2.16305,-0.39539 -1.04663,-0.3954 -1.83743,-1.16293 -0.79079,-0.76754 -1.27922,-1.88395 -0.46517,-1.11641 -0.46517,-2.53519 z m 2.76777,0 q 0,1.72114 0.7908,2.76778 0.79079,1.02337 2.1863,1.02337 1.39552,0 2.18631,-1.02337 0.7908,-1.04664 0.7908,-2.76778 0,-1.74439 -0.7908,-2.76777 -0.79079,-1.04664 -2.18631,-1.04664 -1.39551,0 -2.1863,1.04664 -0.7908,1.02338 -0.7908,2.76777 z m 11.8619,-5.72161 h 2.20957 l 0.20932,1.72113 h 0.093 q 0.81405,-0.81405 1.79091,-1.39551 1.00012,-0.60473 2.32586,-0.60473 1.97698,0 2.90733,1.20945 0.93034,1.18619 0.93034,3.41901 v 7.07062 h -2.698 v -6.72174 q 0,-1.39551 -0.48843,-2.02349 -0.46517,-0.65125 -1.65136,-0.65125 -0.83731,0 -1.48855,0.3954 -0.65124,0.3954 -1.44203,1.20945 v 7.79163 h -2.698 z m 13.95517,0 h 2.20957 l 0.20932,1.72113 h 0.093 q 0.81405,-0.81405 1.79091,-1.39551 1.00012,-0.60473 2.32586,-0.60473 1.97698,0 2.90732,1.20945 0.93035,1.18619 0.93035,3.41901 v 7.07062 h -2.698 v -6.72174 q 0,-1.39551 -0.48843,-2.02349 -0.46517,-0.65125 -1.65136,-0.65125 -0.83731,0 -1.48855,0.3954 -0.65124,0.3954 -1.44203,1.20945 v 7.79163 h -2.698 z m 13.49,5.72161 q 0,-1.39551 0.48843,-2.51193 0.51169,-1.11641 1.32574,-1.88394 0.81405,-0.7908 1.86069,-1.18619 1.06989,-0.41866 2.1863,-0.41866 1.27923,0 2.25609,0.41866 1.00012,0.39539 1.67462,1.11641 0.6745,0.69776 1.02338,1.69788 0.34887,1.00012 0.34887,2.18631 0,0.39539 -0.0465,0.72101 -0.0233,0.32562 -0.0698,0.53495 h -8.30332 q 0.18607,1.55833 1.23271,2.39564 1.04663,0.83731 2.60496,0.83731 0.88383,0 1.65136,-0.23259 0.76753,-0.25584 1.55833,-0.69776 l 0.90708,1.67462 q -0.93034,0.58147 -2.07001,0.95361 -1.13967,0.37213 -2.39564,0.37213 -1.30248,0 -2.44215,-0.39539 -1.13967,-0.41866 -1.97698,-1.18619 -0.83731,-0.76754 -1.32574,-1.86069 -0.48843,-1.11641 -0.48843,-2.53519 z m 8.69871,-1.02338 q 0,-1.37225 -0.69776,-2.13979 -0.69775,-0.76753 -2.07001,-0.76753 -0.58147,0 -1.11641,0.18607 -0.53495,0.18607 -0.97686,0.5582 -0.41866,0.37214 -0.72102,0.90709 -0.30236,0.53495 -0.3954,1.25596 z m 5.51229,1.02338 q 0,-1.41877 0.51169,-2.53519 0.53495,-1.11641 1.41878,-1.88394 0.88382,-0.76754 2.07001,-1.16293 1.18619,-0.41866 2.48867,-0.41866 1.39552,0 2.44216,0.46518 1.06989,0.46517 1.79091,1.13967 l -1.27923,1.67462 q -0.67449,-0.53495 -1.37225,-0.81405 -0.6745,-0.27911 -1.44204,-0.27911 -1.72113,0 -2.79103,1.04664 -1.06989,1.02338 -1.06989,2.76777 0,0.86057 0.2791,1.55833 0.2791,0.69776 0.76753,1.20945 0.51169,0.48843 1.20945,0.76753 0.69776,0.25584 1.53507,0.25584 0.97686,0 1.76765,-0.37213 0.81405,-0.37214 1.48855,-0.88383 l 1.11642,1.72114 q -0.97687,0.86056 -2.18631,1.30248 -1.20945,0.41865 -2.44216,0.41865 -1.349,0 -2.51193,-0.39539 -1.13967,-0.3954 -2.00023,-1.16293 -0.83731,-0.76754 -1.32574,-1.88395 -0.46518,-1.11641 -0.46518,-2.53519 z m 16.67644,-3.60508 h -3.04688 v -2.00024 l 3.16317,-0.11629 0.34888,-3.11666 h 2.20957 v 3.11666 h 5.18667 v 2.11653 h -5.18667 v 4.69824 q 0,1.41877 0.58146,2.09327 0.58147,0.65124 2.04676,0.65124 0.74427,0 1.349,-0.11629 0.62798,-0.13955 1.18619,-0.34888 l 0.48843,1.95372 q -0.74428,0.25585 -1.69788,0.44192 -0.93034,0.20932 -1.97698,0.20932 -1.30248,0 -2.18631,-0.34888 -0.88383,-0.34888 -1.44203,-0.97686 -0.53495,-0.65124 -0.7908,-1.55832 -0.23258,-0.90709 -0.23258,-2.00024 z m 10.97807,3.60508 q 0,-1.39551 0.48843,-2.51193 0.51169,-1.11641 1.32574,-1.88394 0.81405,-0.7908 1.86069,-1.18619 1.06989,-0.41866 2.18631,-0.41866 1.27922,0 2.25608,0.41866 1.00012,0.39539 1.67462,1.11641 0.6745,0.69776 1.02338,1.69788 0.34888,1.00012 0.34888,2.18631 0,0.39539 -0.0465,0.72101 -0.0233,0.32562 -0.0698,0.53495 h -8.30332 q 0.18607,1.55833 1.23271,2.39564 1.04664,0.83731 2.60496,0.83731 0.88383,0 1.65136,-0.23259 0.76754,-0.25584 1.55833,-0.69776 l 0.90708,1.67462 q -0.93034,0.58147 -2.07001,0.95361 -1.13967,0.37213 -2.39564,0.37213 -1.30248,0 -2.44215,-0.39539 -1.13967,-0.41866 -1.97698,-1.18619 -0.83731,-0.76754 -1.32574,-1.86069 -0.48843,-1.11641 -0.48843,-2.53519 z m 8.69871,-1.02338 q 0,-1.37225 -0.69775,-2.13979 -0.69776,-0.76753 -2.07002,-0.76753 -0.58146,0 -1.11641,0.18607 -0.53495,0.18607 -0.97686,0.5582 -0.41866,0.37214 -0.72102,0.90709 -0.30236,0.53495 -0.3954,1.25596 z m 6.83804,-4.69823 h 2.20957 l 0.23259,2.5817 h 0.0698 q 0.88383,-1.39551 2.11653,-2.11653 1.25597,-0.74428 2.74452,-0.74428 0.69776,0 1.18619,0.1163 0.51169,0.093 1.02338,0.34888 l -0.55821,2.25608 q -0.55821,-0.18607 -1.00012,-0.25584 -0.41866,-0.093 -1.0699,-0.093 -1.18618,0 -2.27934,0.6745 -1.09315,0.6745 -1.97698,2.34912 v 6.30308 h -2.698 z m 25.04953,-3.79116 h 2.72126 l 0.83731,8.81501 q 0.0465,0.97687 0.11629,1.90721 0.0698,0.93034 0.1163,1.9072 h 0.0698 q 0.18607,-0.97686 0.41866,-1.9072 0.25584,-0.9536 0.46517,-1.90721 l 1.32574,-4.93082 h 1.72113 l 1.30249,4.93082 q 0.18607,0.93035 0.41865,1.88395 0.25585,0.9536 0.44191,1.93046 h 0.093 q 0.0465,-0.97686 0.11629,-1.93046 0.0698,-0.9536 0.1163,-1.88395 l 0.79079,-8.81501 h 2.55844 l -2.07001,15.21113 h -2.86081 l -1.349,-5.55881 q -0.16281,-0.72101 -0.2791,-1.44203 -0.11629,-0.72102 -0.20933,-1.39552 h -0.0698 q -0.1163,0.6745 -0.23259,1.39552 -0.11629,0.72102 -0.2791,1.44203 l -1.27923,5.55881 h -2.81429 z m 15.74609,3.79116 h 7.62882 v 11.41997 h -2.67474 v -9.30344 h -4.95408 z m 6.09375,-2.00024 q -0.81405,0 -1.37226,-0.48843 -0.53495,-0.48843 -0.53495,-1.30249 0,-0.81405 0.53495,-1.30248 0.55821,-0.51169 1.37226,-0.51169 0.83731,0 1.37226,0.51169 0.53494,0.48843 0.53494,1.30248 0,0.81406 -0.53494,1.30249 -0.53495,0.48843 -1.37226,0.48843 z m 10.32683,4.11677 h -3.04688 v -2.00024 l 3.16317,-0.11629 0.34888,-3.11666 h 2.20957 v 3.11666 h 5.18666 v 2.11653 h -5.18666 v 4.69824 q 0,1.41877 0.58146,2.09327 0.58147,0.65124 2.04676,0.65124 0.74427,0 1.349,-0.11629 0.62798,-0.13955 1.18619,-0.34888 l 0.48843,1.95372 q -0.74428,0.25585 -1.69788,0.44192 -0.93035,0.20932 -1.97698,0.20932 -1.30248,0 -2.18631,-0.34888 -0.88383,-0.34888 -1.44203,-0.97686 -0.53495,-0.65124 -0.7908,-1.55832 -0.23258,-0.90709 -0.23258,-2.00024 z m 11.44324,-7.11713 h 2.698 v 4.23306 l -0.16281,2.44216 q 0.79079,-0.7908 1.76765,-1.37226 1.00012,-0.58147 2.32586,-0.58147 1.97698,0 2.90732,1.20945 0.93035,1.18619 0.93035,3.41901 v 7.07062 h -2.698 v -6.72174 q 0,-1.39551 -0.48843,-2.02349 -0.46517,-0.65125 -1.65136,-0.65125 -0.83731,0 -1.48855,0.3954 -0.65124,0.3954 -1.44203,1.20945 v 7.79163 h -2.698 z m 31.6317,11.14087 -5.0006,-9.93143 h 2.86081 l 1.9072,4.09352 q 0.3954,0.88383 0.76754,1.74439 0.39539,0.83731 0.79079,1.76766 h 0.093 q 0.41866,-0.93035 0.81405,-1.79092 0.3954,-0.86056 0.7908,-1.74439 l 1.88394,-4.07026 h 2.79103 l -5.00059,9.93143 v 5.2797 h -2.698 z m 9.55929,-0.41866 q 0,-1.41877 0.46517,-2.53519 0.48843,-1.11641 1.27923,-1.88394 0.79079,-0.76754 1.83743,-1.16293 1.04663,-0.41866 2.16305,-0.41866 1.11641,0 2.16305,0.41866 1.04663,0.39539 1.83743,1.16293 0.79079,0.76753 1.25596,1.88394 0.48843,1.11642 0.48843,2.53519 0,1.41878 -0.48843,2.53519 -0.46517,1.11641 -1.25596,1.88395 -0.7908,0.76753 -1.83743,1.16293 -1.04664,0.39539 -2.16305,0.39539 -1.11642,0 -2.16305,-0.39539 -1.04664,-0.3954 -1.83743,-1.16293 -0.7908,-0.76754 -1.27923,-1.88395 -0.46517,-1.11641 -0.46517,-2.53519 z m 2.76778,0 q 0,1.72114 0.79079,2.76778 0.79079,1.02337 2.18631,1.02337 1.39551,0 2.1863,-1.02337 0.7908,-1.04664 0.7908,-2.76778 0,-1.74439 -0.7908,-2.76777 -0.79079,-1.04664 -2.1863,-1.04664 -1.39552,0 -2.18631,1.04664 -0.79079,1.02338 -0.79079,2.76777 z m 21.93287,5.69836 h -2.18631 L 914.0644,306.965 h -0.093 q -0.81405,0.9536 -1.79091,1.53507 -0.97686,0.5582 -2.25608,0.5582 -2.00024,0 -2.90733,-1.18619 -0.90708,-1.20944 -0.90708,-3.44227 v -7.07061 h 2.67474 v 6.72173 q 0,1.39552 0.46517,2.04676 0.48843,0.62798 1.67462,0.62798 0.81405,0 1.44203,-0.37214 0.65124,-0.37213 1.41878,-1.32574 v -7.69859 h 2.67474 z m 5.0006,-11.41997 h 2.20957 l 0.23259,2.5817 h 0.0698 q 0.88383,-1.39551 2.11654,-2.11653 1.25596,-0.74428 2.74451,-0.74428 0.69776,0 1.18619,0.1163 0.51169,0.093 1.02338,0.34888 l -0.55821,2.25608 q -0.55821,-0.18607 -1.00012,-0.25584 -0.41865,-0.093 -1.06989,-0.093 -1.18619,0 -2.27935,0.6745 -1.09315,0.6745 -1.97698,2.34912 v 6.30308 h -2.698 z m 27.70102,-3.79116 h 9.67557 v 2.27935 h -6.97758 v 4.30284 h 5.93095 v 2.27934 h -5.93095 v 6.3496 h -2.69799 z m 12.79224,12.14099 q 0,-0.9536 0.44191,-1.67462 0.44191,-0.74427 1.39551,-1.25596 0.95361,-0.51169 2.44216,-0.83731 1.48855,-0.32562 3.60508,-0.46517 -0.0698,-0.97686 -0.69776,-1.60484 -0.62798,-0.62799 -2.0235,-0.62799 -0.97686,0 -1.93046,0.37214 -0.93034,0.34888 -1.81417,0.83731 l -0.97686,-1.79091 q 1.04664,-0.60473 2.39563,-1.09316 1.349,-0.48843 2.8143,-0.48843 2.39563,0 3.6516,1.27923 1.25596,1.25596 1.25596,3.6516 v 6.76825 h -2.18631 l -0.20933,-1.41878 h -0.0698 q -0.90709,0.69776 -2.0235,1.20945 -1.09315,0.48843 -2.25608,0.48843 -0.83731,0 -1.53507,-0.25584 -0.69776,-0.23259 -1.20945,-0.6745 -0.51169,-0.44191 -0.79079,-1.04664 -0.2791,-0.62798 -0.2791,-1.37226 z m 2.5817,-0.20932 q 0,0.76753 0.58147,1.11641 0.60472,0.34888 1.46529,0.34888 0.86057,0 1.65136,-0.37214 0.81405,-0.3954 1.60484,-1.02338 v -2.41889 q -1.53507,0.11629 -2.55845,0.32562 -1.02337,0.18607 -1.6281,0.48843 -0.60472,0.30236 -0.86057,0.69776 -0.25584,0.37213 -0.25584,0.83731 z m 10.67571,-8.14051 h 2.69799 l 2.20957,5.93094 q 0.32562,0.86057 0.58147,1.72114 0.2791,0.83731 0.5582,1.72113 h 0.093 q 0.2791,-0.88382 0.53495,-1.72113 0.2791,-0.86057 0.60472,-1.72114 l 2.20957,-5.93094 h 2.55844 l -4.44239,11.41997 h -3.04688 z m 14.23427,5.72161 q 0,-1.41877 0.46517,-2.53519 0.48843,-1.11641 1.27922,-1.88394 0.7908,-0.76754 1.83743,-1.16293 1.04664,-0.41866 2.16305,-0.41866 1.11642,0 2.16305,0.41866 1.04664,0.39539 1.83743,1.16293 0.7908,0.76753 1.25597,1.88394 0.4884,1.11642 0.4884,2.53519 0,1.41878 -0.4884,2.53519 -0.46517,1.11641 -1.25597,1.88395 -0.79079,0.76753 -1.83743,1.16293 -1.04663,0.39539 -2.16305,0.39539 -1.11641,0 -2.16305,-0.39539 -1.04663,-0.3954 -1.83743,-1.16293 -0.79079,-0.76754 -1.27922,-1.88395 -0.46517,-1.11641 -0.46517,-2.53519 z m 2.76777,0 q 0,1.72114 0.7908,2.76778 0.79079,1.02337 2.1863,1.02337 1.39552,0 2.18631,-1.02337 0.7908,-1.04664 0.7908,-2.76778 0,-1.74439 -0.7908,-2.76777 -0.79079,-1.04664 -2.18631,-1.04664 -1.39551,0 -2.1863,1.04664 -0.7908,1.02338 -0.7908,2.76777 z m 12.97835,-5.72161 h 2.2095 l 0.2326,2.5817 h 0.07 q 0.8838,-1.39551 2.1165,-2.11653 1.256,-0.74428 2.7445,-0.74428 0.6978,0 1.1862,0.1163 0.5117,0.093 1.0234,0.34888 l -0.5582,2.25608 q -0.5582,-0.18607 -1.0001,-0.25584 -0.4187,-0.093 -1.0699,-0.093 -1.1862,0 -2.2793,0.6745 -1.0932,0.6745 -1.977,2.34912 v 6.30308 h -2.698 z m 12.8852,0 h 7.6289 v 11.41997 h -2.6748 v -9.30344 h -4.9541 z m 6.0938,-2.00024 q -0.8141,0 -1.3723,-0.48843 -0.5349,-0.48843 -0.5349,-1.30249 0,-0.81405 0.5349,-1.30248 0.5582,-0.51169 1.3723,-0.51169 0.8373,0 1.3723,0.51169 0.5349,0.48843 0.5349,1.30248 0,0.81406 -0.5349,1.30249 -0.535,0.48843 -1.3723,0.48843 z m 10.3268,4.11677 h -3.0468 v -2.00024 l 3.1631,-0.11629 0.3489,-3.11666 h 2.2096 v 3.11666 h 5.1866 v 2.11653 h -5.1866 v 4.69824 q 0,1.41877 0.5814,2.09327 0.5815,0.65124 2.0468,0.65124 0.7443,0 1.349,-0.11629 0.628,-0.13955 1.1862,-0.34888 l 0.4884,1.95372 q -0.7443,0.25585 -1.6979,0.44192 -0.9303,0.20932 -1.977,0.20932 -1.3024,0 -2.1863,-0.34888 -0.8838,-0.34888 -1.442,-0.97686 -0.5349,-0.65124 -0.7908,-1.55832 -0.2326,-0.90709 -0.2326,-2.00024 z m 10.9781,3.60508 q 0,-1.39551 0.4884,-2.51193 0.5117,-1.11641 1.3258,-1.88394 0.814,-0.7908 1.8607,-1.18619 1.0699,-0.41866 2.1863,-0.41866 1.2792,0 2.256,0.41866 1.0002,0.39539 1.6747,1.11641 0.6745,0.69776 1.0233,1.69788 0.3489,1.00012 0.3489,2.18631 0,0.39539 -0.047,0.72101 -0.023,0.32562 -0.07,0.53495 h -8.3033 q 0.1861,1.55833 1.2327,2.39564 1.0467,0.83731 2.605,0.83731 0.8838,0 1.6513,-0.23259 0.7676,-0.25584 1.5584,-0.69776 l 0.9071,1.67462 q -0.9304,0.58147 -2.0701,0.95361 -1.1396,0.37213 -2.3956,0.37213 -1.3025,0 -2.4422,-0.39539 -1.1396,-0.41866 -1.9769,-1.18619 -0.8373,-0.76754 -1.3258,-1.86069 -0.4884,-1.11641 -0.4884,-2.53519 z m 8.6987,-1.02338 q 0,-1.37225 -0.6977,-2.13979 -0.6978,-0.76753 -2.0701,-0.76753 -0.5814,0 -1.1164,0.18607 -0.5349,0.18607 -0.9768,0.5582 -0.4187,0.37214 -0.7211,0.90709 -0.3023,0.53495 -0.3953,1.25596 z m 26.6311,0.48843 -0.5349,-1.86068 q -0.3256,-1.20945 -0.6745,-2.48867 -0.3489,-1.27923 -0.6745,-2.53519 h -0.093 q -0.3256,1.27922 -0.6745,2.55844 -0.3256,1.25597 -0.6745,2.46542 l -0.5349,1.86068 z m 0.6048,2.11654 h -5.0704 l -1.1862,4.11677 h -2.7445 l 4.9308,-15.21113 h 3.1632 l 4.9308,15.21113 h -2.8608 z m 7.5125,-7.3032 h 2.2096 l 0.2325,2.5817 h 0.07 q 0.8838,-1.39551 2.1166,-2.11653 1.2559,-0.74428 2.7445,-0.74428 0.6977,0 1.1862,0.1163 0.5116,0.093 1.0233,0.34888 l -0.5582,2.25608 q -0.5582,-0.18607 -1.0001,-0.25584 -0.4186,-0.093 -1.0699,-0.093 -1.1862,0 -2.2793,0.6745 -1.0932,0.6745 -1.977,2.34912 v 6.30308 h -2.698 z m 15.3507,2.11653 h -3.0469 v -2.00024 l 3.1632,-0.11629 0.3488,-3.11666 h 2.2096 v 3.11666 h 5.1867 v 2.11653 h -5.1867 v 4.69824 q 0,1.41877 0.5815,2.09327 0.5814,0.65124 2.0467,0.65124 0.7443,0 1.349,-0.11629 0.628,-0.13955 1.1862,-0.34888 l 0.4885,1.95372 q -0.7443,0.25585 -1.6979,0.44192 -0.9304,0.20932 -1.977,0.20932 -1.3025,0 -2.1863,-0.34888 -0.8838,-0.34888 -1.442,-0.97686 -0.535,-0.65124 -0.7908,-1.55832 -0.2326,-0.90709 -0.2326,-2.00024 z m 11.4897,-2.11653 h 7.6289 v 11.41997 h -2.6748 v -9.30344 h -4.9541 z m 6.0938,-2.00024 q -0.8141,0 -1.3723,-0.48843 -0.5349,-0.48843 -0.5349,-1.30249 0,-0.81405 0.5349,-1.30248 0.5582,-0.51169 1.3723,-0.51169 0.8373,0 1.3722,0.51169 0.535,0.48843 0.535,1.30248 0,0.81406 -0.535,1.30249 -0.5349,0.48843 -1.3722,0.48843 z m 8.6056,10.23378 q 0.9769,0.6745 2.0235,1.0699 1.0699,0.37213 2.3957,0.37213 1.349,0 1.977,-0.37213 0.6279,-0.3954 0.6279,-1.00012 0,-0.60473 -0.814,-1.00012 -0.8141,-0.41866 -2.5585,-0.88383 -0.814,-0.20933 -1.5815,-0.51169 -0.7676,-0.30236 -1.349,-0.69776 -0.5815,-0.39539 -0.9304,-0.90708 -0.3489,-0.51169 -0.3489,-1.16293 0,-1.51181 1.3025,-2.46541 1.3025,-0.95361 3.7447,-0.95361 1.3955,0 2.6282,0.46518 1.2327,0.46517 2.1165,1.04663 l -1.2327,1.65136 q -0.7675,-0.51169 -1.6514,-0.81405 -0.8605,-0.32562 -1.8374,-0.32562 -1.3257,0 -1.8607,0.37214 -0.5349,0.34888 -0.5349,0.88383 0,0.30236 0.2326,0.5582 0.2558,0.23259 0.6745,0.44192 0.4419,0.18606 1.0233,0.37213 0.5815,0.18607 1.2793,0.34888 1.0001,0.25585 1.7909,0.58147 0.814,0.30236 1.3722,0.69776 0.5815,0.39539 0.8839,0.93034 0.3256,0.53495 0.3256,1.23271 0,0.74427 -0.3489,1.39551 -0.3489,0.62798 -1.0234,1.11641 -0.6745,0.46518 -1.6746,0.74428 -1.0001,0.2791 -2.3026,0.2791 -1.6048,0 -3.0701,-0.51169 -1.4653,-0.51169 -2.5352,-1.25596 z m 15.6764,-6.11701 h -3.0469 v -2.00024 l 3.1632,-0.11629 0.3489,-3.11666 h 2.2095 v 3.11666 h 5.1867 v 2.11653 h -5.1867 v 4.69824 q 0,1.41877 0.5815,2.09327 0.5815,0.65124 2.0467,0.65124 0.7443,0 1.349,-0.11629 0.628,-0.13955 1.1862,-0.34888 l 0.4885,1.95372 q -0.7443,0.25585 -1.6979,0.44192 -0.9304,0.20932 -1.977,0.20932 -1.3025,0 -2.1863,-0.34888 -0.8838,-0.34888 -1.442,-0.97686 -0.535,-0.65124 -0.7908,-1.55832 -0.2326,-0.90709 -0.2326,-2.00024 z m 12.234,6.11701 q 0.9768,0.6745 2.0235,1.0699 1.0699,0.37213 2.3956,0.37213 1.349,0 1.977,-0.37213 0.628,-0.3954 0.628,-1.00012 0,-0.60473 -0.8141,-1.00012 -0.814,-0.41866 -2.5584,-0.88383 -0.8141,-0.20933 -1.5816,-0.51169 -0.7675,-0.30236 -1.349,-0.69776 -0.5815,-0.39539 -0.9303,-0.90708 -0.3489,-0.51169 -0.3489,-1.16293 0,-1.51181 1.3025,-2.46541 1.3024,-0.95361 3.7446,-0.95361 1.3955,0 2.6282,0.46518 1.2327,0.46517 2.1166,1.04663 l -1.2328,1.65136 q -0.7675,-0.51169 -1.6513,-0.81405 -0.8606,-0.32562 -1.8374,-0.32562 -1.3258,0 -1.8607,0.37214 -0.535,0.34888 -0.535,0.88383 0,0.30236 0.2326,0.5582 0.2559,0.23259 0.6745,0.44192 0.4419,0.18606 1.0234,0.37213 0.5814,0.18607 1.2792,0.34888 1.0001,0.25585 1.7909,0.58147 0.8141,0.30236 1.3723,0.69776 0.5814,0.39539 0.8838,0.93034 0.3256,0.53495 0.3256,1.23271 0,0.74427 -0.3489,1.39551 -0.3488,0.62798 -1.0233,1.11641 -0.6745,0.46518 -1.6747,0.74428 -1.0001,0.2791 -2.3026,0.2791 -1.6048,0 -3.0701,-0.51169 -1.4653,-0.51169 -2.5352,-1.25596 z m 34.0739,-3.04688 -0.535,-1.86068 q -0.3256,-1.20945 -0.6745,-2.48867 -0.3489,-1.27923 -0.6745,-2.53519 h -0.093 q -0.3256,1.27922 -0.6745,2.55844 -0.3256,1.25597 -0.6745,2.46542 l -0.535,1.86068 z m 0.6047,2.11654 h -5.0704 l -1.1862,4.11677 h -2.7445 l 4.9308,-15.21113 h 3.1632 l 4.9308,15.21113 h -2.8608 z m 6.3961,-7.3032 h 2.2096 l 0.2093,1.72113 h 0.093 q 0.814,-0.81405 1.7909,-1.39551 1.0001,-0.60473 2.3258,-0.60473 1.977,0 2.9074,1.20945 0.9303,1.18619 0.9303,3.41901 v 7.07062 h -2.698 v -6.72174 q 0,-1.39551 -0.4884,-2.02349 -0.4652,-0.65125 -1.6514,-0.65125 -0.8373,0 -1.4885,0.3954 -0.6513,0.3954 -1.4421,1.20945 v 7.79163 h -2.698 z m 13.2807,5.72161 q 0,-1.39551 0.4186,-2.51193 0.4187,-1.11641 1.1164,-1.88394 0.7211,-0.76754 1.6281,-1.18619 0.9071,-0.41866 1.884,-0.41866 1.0234,0 1.7444,0.37214 0.7443,0.34888 1.442,0.97686 l -0.1163,-1.93046 v -4.14003 h 2.698 v 16.42057 h -2.2095 l -0.2094,-1.32574 h -0.07 q -0.6745,0.6745 -1.5816,1.13967 -0.8839,0.46517 -1.8607,0.46517 -1.0932,0 -2.0003,-0.39539 -0.907,-0.41866 -1.5583,-1.18619 -0.628,-0.76754 -0.9768,-1.86069 -0.3489,-1.11641 -0.3489,-2.53519 z m 2.7677,-0.0233 q 0,1.86069 0.7211,2.83755 0.721,0.95361 2.0467,0.95361 1.4188,0 2.5817,-1.37226 v -5.14015 q -0.6047,-0.58147 -1.2094,-0.81405 -0.6047,-0.23259 -1.2327,-0.23259 -0.6048,0 -1.1397,0.25585 -0.5117,0.25584 -0.9071,0.74427 -0.3954,0.46517 -0.628,1.16293 -0.2326,0.69776 -0.2326,1.60484 z m 26.3288,-9.48951 h 9.7221 v 2.27935 h -7.0241 v 3.88418 h 5.9542 v 2.27935 h -5.9542 v 4.48891 h 7.2567 v 2.27934 h -9.9547 z m 12.4899,3.79116 h 2.698 l 2.2096,5.93094 q 0.3256,0.86057 0.5814,1.72114 0.2791,0.83731 0.5582,1.72113 h 0.093 q 0.2791,-0.88382 0.5349,-1.72113 0.2791,-0.86057 0.6048,-1.72114 l 2.2095,-5.93094 h 2.5585 l -4.4424,11.41997 h -3.0469 z m 14.4436,5.72161 q 0,-1.39551 0.4884,-2.51193 0.5117,-1.11641 1.3258,-1.88394 0.814,-0.7908 1.8606,-1.18619 1.0699,-0.41866 2.1863,-0.41866 1.2793,0 2.2561,0.41866 1.0002,0.39539 1.6747,1.11641 0.6745,0.69776 1.0233,1.69788 0.3489,1.00012 0.3489,2.18631 0,0.39539 -0.046,0.72101 -0.023,0.32562 -0.07,0.53495 h -8.3033 q 0.1861,1.55833 1.2327,2.39564 1.0466,0.83731 2.605,0.83731 0.8838,0 1.6513,-0.23259 0.7676,-0.25584 1.5584,-0.69776 l 0.907,1.67462 q -0.9303,0.58147 -2.07,0.95361 -1.1397,0.37213 -2.3956,0.37213 -1.3025,0 -2.4422,-0.39539 -1.1396,-0.41866 -1.9769,-1.18619 -0.8374,-0.76754 -1.3258,-1.86069 -0.4884,-1.11641 -0.4884,-2.53519 z m 8.6987,-1.02338 q 0,-1.37225 -0.6978,-2.13979 -0.6977,-0.76753 -2.07,-0.76753 -0.5814,0 -1.1164,0.18607 -0.5349,0.18607 -0.9769,0.5582 -0.4186,0.37214 -0.721,0.90709 -0.3023,0.53495 -0.3954,1.25596 z m 5.7217,-4.69823 h 2.2095 l 0.2093,1.72113 h 0.093 q 0.814,-0.81405 1.7909,-1.39551 1.0001,-0.60473 2.3259,-0.60473 1.9769,0 2.9073,1.20945 0.9303,1.18619 0.9303,3.41901 v 7.07062 h -2.698 v -6.72174 q 0,-1.39551 -0.4884,-2.02349 -0.4652,-0.65125 -1.6514,-0.65125 -0.8373,0 -1.4885,0.3954 -0.6513,0.3954 -1.442,1.20945 v 7.79163 h -2.698 z m 16.467,2.11653 h -3.0469 v -2.00024 l 3.1632,-0.11629 0.3489,-3.11666 h 2.2096 v 3.11666 h 5.1866 v 2.11653 h -5.1866 v 4.69824 q 0,1.41877 0.5814,2.09327 0.5815,0.65124 2.0468,0.65124 0.7443,0 1.349,-0.11629 0.628,-0.13955 1.1862,-0.34888 l 0.4884,1.95372 q -0.7443,0.25585 -1.6979,0.44192 -0.9303,0.20932 -1.977,0.20932 -1.3024,0 -2.1863,-0.34888 -0.8838,-0.34888 -1.442,-0.97686 -0.5349,-0.65124 -0.7908,-1.55832 -0.2326,-0.90709 -0.2326,-2.00024 z m 12.2341,6.11701 q 0.9768,0.6745 2.0235,1.0699 1.0699,0.37213 2.3956,0.37213 1.349,0 1.977,-0.37213 0.628,-0.3954 0.628,-1.00012 0,-0.60473 -0.8141,-1.00012 -0.814,-0.41866 -2.5584,-0.88383 -0.8141,-0.20933 -1.5816,-0.51169 -0.7675,-0.30236 -1.349,-0.69776 -0.5815,-0.39539 -0.9303,-0.90708 -0.3489,-0.51169 -0.3489,-1.16293 0,-1.51181 1.3025,-2.46541 1.3024,-0.95361 3.7446,-0.95361 1.3955,0 2.6282,0.46518 1.2327,0.46517 2.1165,1.04663 l -1.2327,1.65136 q -0.7675,-0.51169 -1.6513,-0.81405 -0.8606,-0.32562 -1.8374,-0.32562 -1.3258,0 -1.8607,0.37214 -0.535,0.34888 -0.535,0.88383 0,0.30236 0.2326,0.5582 0.2558,0.23259 0.6745,0.44192 0.4419,0.18606 1.0234,0.37213 0.5814,0.18607 1.2792,0.34888 1.0001,0.25585 1.7909,0.58147 0.8141,0.30236 1.3723,0.69776 0.5814,0.39539 0.8838,0.93034 0.3256,0.53495 0.3256,1.23271 0,0.74427 -0.3489,1.39551 -0.3488,0.62798 -1.0233,1.11641 -0.6745,0.46518 -1.6747,0.74428 -1.0001,0.2791 -2.3026,0.2791 -1.6048,0 -3.0701,-0.51169 -1.4653,-0.51169 -2.5352,-1.25596 z"
         id="text29-2-1-0-5"
         style="font-weight:600;font-size:23.2586px;font-family:'Source Code Pro';-inkscape-font-specification:'Source Code Pro, Semi-Bold';fill:url(#linearGradient1023);stroke:none;stroke-width:2.6;stroke-linecap:square;stroke-miterlimit:3.1;stroke-dasharray:none"
         aria-label="Stay Connecter With Your Favorite Artists And Events"
         inkscape:export-filename="groupie_assets\Quote.svg"
         inkscape:export-xdpi="96"
         inkscape:export-ydpi="96" /></g></g></svg>
